<svg width="30" height="30" viewBox="0 0 30 30" fill="none" xmlns="http://www.w3.org/2000/svg">
<g clip-path="url(#clip0_2803_2929)">
<path d="M14.4462 23.3315C13.8881 23.2397 13.3458 23.1859 12.822 23.0589C9.41139 22.2329 7.04373 20.1786 5.70137 16.9442C5.61237 16.7291 5.51874 16.6466 5.28049 16.6512C4.46191 16.6679 3.64241 16.6577 2.80251 16.6577V22.2774C2.88409 22.3127 2.97772 22.3535 3.07228 22.3933C4.03455 22.7966 4.60282 23.8191 4.41278 24.8055C4.2079 25.8679 3.32907 26.6308 2.28429 26.6531C1.22561 26.6763 0.297642 25.9504 0.0649548 24.9186C-0.165879 23.897 0.336578 22.8513 1.3109 22.436C1.61219 22.3071 1.68079 22.156 1.67893 21.8547C1.66503 20.0043 1.67152 18.153 1.67245 16.3027C1.67245 15.7297 1.84858 15.5518 2.4113 15.5508C3.34668 15.5499 4.28207 15.5508 5.23321 15.5508C5.17296 15.1021 5.09694 14.684 5.06264 14.2613C4.7836 10.7979 5.9971 7.94537 8.60765 5.67505C8.80696 5.50169 8.90708 5.33946 8.89966 5.06691C8.87834 4.33918 8.89039 3.6096 8.88761 2.88094C8.88761 2.86055 8.87371 2.83923 8.85238 2.77897H8.01063C6.91116 2.77897 5.81261 2.78453 4.71314 2.77433C4.48045 2.77248 4.35623 2.82161 4.25704 3.06635C3.82782 4.12874 2.69683 4.66735 1.61497 4.35679C0.557214 4.05458 -0.151973 2.95418 0.0278731 1.89643C0.221625 0.755237 1.18668 -0.0540705 2.32786 0.00896839C3.25769 0.0608827 3.91032 0.550361 4.27002 1.40231C4.35716 1.60904 4.45079 1.67394 4.66957 1.67301C6.19641 1.66374 7.72417 1.66745 9.25101 1.66837C9.82207 1.66837 10.001 1.84544 10.0019 2.40908C10.0038 3.14701 10.0019 3.88493 10.0019 4.66365C13.3402 2.88743 16.6553 2.88187 19.9991 4.6655C19.9991 3.88864 19.9982 3.15257 19.9991 2.4165C20.0001 1.84637 20.1753 1.6693 20.7417 1.66837C22.2574 1.66745 23.7731 1.66374 25.2888 1.67208C25.5234 1.67301 25.6448 1.62202 25.7431 1.37821C26.1705 0.317673 27.3024 -0.221865 28.3842 0.0859129C29.4392 0.386274 30.1512 1.48853 29.9713 2.54536C29.7766 3.68654 28.807 4.50234 27.6732 4.43559C26.7304 4.37997 26.0768 3.87937 25.7143 3.01166C25.6476 2.85221 25.5883 2.77248 25.4001 2.77433C23.9891 2.78268 22.5772 2.77897 21.1088 2.77897C21.1088 3.11641 21.1088 3.44644 21.1088 3.77647C21.1088 4.28541 20.9725 4.84905 21.1477 5.28754C21.3183 5.71491 21.8152 6.00786 22.1554 6.37218C24.4971 8.88169 25.4066 11.8213 24.8031 15.2134C24.7855 15.3144 24.7771 15.4164 24.7604 15.5499C25.6995 15.5499 26.6228 15.5499 27.5471 15.5499C28.1636 15.5499 28.3295 15.7149 28.3295 16.3286C28.3295 18.2142 28.3332 20.0998 28.3249 21.9854C28.3249 22.1986 28.375 22.3025 28.5891 22.3878C29.5847 22.7836 30.154 23.8117 29.9593 24.8092C29.7498 25.8846 28.8552 26.6457 27.7928 26.6531C26.7257 26.6605 25.8163 25.9133 25.5957 24.8463C25.3843 23.8265 25.9489 22.8096 26.9482 22.3748C27.0576 22.3266 27.205 22.1903 27.206 22.093C27.2217 20.3001 27.2171 18.5081 27.2171 16.6596C26.9121 16.6596 26.6164 16.6596 26.3216 16.6596C25.7774 16.6596 25.2341 16.6679 24.69 16.6549C24.4879 16.6503 24.3896 16.7096 24.3099 16.9062C22.9666 20.1897 20.5665 22.2515 17.1151 23.0766C16.6127 23.1961 16.0926 23.2425 15.553 23.3278C15.553 24.0425 15.5419 24.7582 15.5669 25.473C15.5697 25.5629 15.7468 25.6769 15.8655 25.7297C16.7007 26.0969 17.2347 26.9099 17.218 27.8137C17.2013 28.7046 16.621 29.5241 15.7802 29.8412C14.6584 30.2648 13.3912 29.7086 12.9379 28.5952C12.4901 27.4939 12.9916 26.2294 14.0994 25.7594C14.3905 25.6361 14.4601 25.4906 14.4499 25.2004C14.4276 24.5774 14.4434 23.9545 14.4434 23.3315H14.4462ZM6.1139 13.3176C6.10834 18.229 10.0872 22.2116 14.9987 22.2125C19.8981 22.2125 23.8723 18.2522 23.8862 13.3547C23.9001 8.43949 19.9324 4.45321 15.0181 4.44486C10.102 4.43652 6.11946 8.40519 6.1139 13.3185V13.3176ZM26.6646 2.21255C26.6599 2.82069 27.1411 3.31851 27.7474 3.33149C28.3675 3.34539 28.8793 2.84942 28.8839 2.23016C28.8885 1.62202 28.4065 1.12513 27.8002 1.11215C27.1754 1.09917 26.6692 1.58957 26.6646 2.21162V2.21255ZM1.11622 2.19771C1.10417 2.80585 1.57974 3.31016 2.18417 3.33149C2.80436 3.35281 3.32351 2.86333 3.33556 2.24592C3.34761 1.63685 2.87204 1.13347 2.26668 1.114C1.64185 1.09361 1.12827 1.57752 1.11622 2.19864V2.19771ZM16.1102 27.7646C16.1102 27.1565 15.6254 26.6642 15.0181 26.6549C14.3933 26.6466 13.8918 27.1398 13.8909 27.7627C13.8909 28.3709 14.3757 28.8641 14.982 28.8733C15.6022 28.8826 16.1093 28.3839 16.1102 27.7637V27.7646ZM26.6646 24.4152C26.6562 25.0243 27.1336 25.5249 27.739 25.5425C28.3592 25.5601 28.8746 25.0688 28.8839 24.4495C28.8922 23.8414 28.4139 23.3398 27.8085 23.3231C27.1837 23.3065 26.6729 23.7932 26.6646 24.4143V24.4152ZM2.23794 23.3241C1.62795 23.3176 1.13105 23.7959 1.11622 24.4031C1.10139 25.0252 1.59272 25.5369 2.21291 25.5434C2.8331 25.5499 3.33834 25.0493 3.33556 24.4291C3.3337 23.821 2.84608 23.3306 2.23794 23.325V23.3241Z" fill="black"/>
<path d="M22.7753 29.9864C21.9076 29.9864 21.0399 29.9873 20.1722 29.9864C19.6874 29.9864 19.451 29.8056 19.4454 29.4394C19.4398 29.0705 19.6809 28.8776 20.1555 28.8776C21.8909 28.8767 23.6264 28.8767 25.3618 28.8776C25.8726 28.8776 26.1118 29.0603 26.1062 29.4413C26.1006 29.8167 25.8642 29.9873 25.3432 29.9873C24.4876 29.9882 23.631 29.9873 22.7753 29.9873V29.9864Z" fill="black"/>
<path d="M7.21427 29.9861C6.33544 29.9861 5.45567 29.9879 4.57684 29.9861C4.12815 29.9851 3.89361 29.7895 3.89453 29.4289C3.89546 29.0683 4.12815 28.8773 4.57962 28.8764C6.34934 28.8745 8.11999 28.8745 9.88971 28.8764C10.306 28.8764 10.5284 29.0516 10.5535 29.3798C10.5822 29.7487 10.3495 29.9814 9.92123 29.9842C9.01922 29.9907 8.11628 29.9861 7.21427 29.9861Z" fill="black"/>
<path d="M23.3302 27.7654C22.9835 27.7654 22.6358 27.7709 22.2891 27.7635C21.8914 27.7552 21.6708 27.5559 21.6671 27.2175C21.6624 26.8754 21.8821 26.6622 22.2733 26.6576C22.9788 26.6501 23.6843 26.6511 24.3898 26.6576C24.7754 26.6613 25.0007 26.8791 24.9951 27.2194C24.9896 27.5457 24.7727 27.7543 24.4065 27.7635C24.0486 27.7728 23.6899 27.7654 23.3311 27.7663L23.3302 27.7654Z" fill="black"/>
<path d="M6.65965 27.7654C6.31294 27.7654 5.9653 27.7719 5.61859 27.7635C5.22459 27.7543 5.00396 27.5494 5.00489 27.2092C5.00489 26.8689 5.22552 26.6613 5.61951 26.6576C6.32499 26.6501 7.03047 26.6511 7.73595 26.6576C8.10399 26.6613 8.32277 26.8671 8.33297 27.1925C8.34316 27.5308 8.11697 27.7543 7.73502 27.7626C7.37626 27.7709 7.01842 27.7645 6.65965 27.7645V27.7654Z" fill="black"/>
<path d="M12.7726 1.10898C12.4723 1.10527 12.2229 0.850336 12.2266 0.549975C12.2303 0.248686 12.4843 0.000239061 12.7847 0.00394723C13.086 0.0076554 13.3344 0.261665 13.3307 0.562026C13.327 0.863315 13.0721 1.11176 12.7726 1.10898Z" fill="black"/>
<path d="M28.8809 12.7691C28.5805 12.7673 28.3302 12.5133 28.332 12.212C28.3339 11.9098 28.5861 11.6613 28.8883 11.6641C29.1896 11.6669 29.4399 11.919 29.4371 12.2203C29.4343 12.5216 29.1812 12.771 28.8809 12.7691Z" fill="black"/>
<path d="M15.5528 0.555057C15.5528 0.856346 15.3016 1.10757 15.0012 1.1085C14.7008 1.1085 14.4487 0.857273 14.4478 0.556911C14.4478 0.255623 14.6981 0.00439453 14.9993 0.00439453C15.3006 0.00439453 15.5519 0.254696 15.5528 0.555984V0.555057Z" fill="black"/>
<path d="M1.66774 12.2326C1.65847 12.5339 1.3989 12.7786 1.09946 12.7694C0.799103 12.7601 0.554364 12.5005 0.562707 12.2002C0.571978 11.8979 0.828768 11.655 1.13098 11.6643C1.43227 11.6736 1.67701 11.9322 1.66774 12.2326Z" fill="black"/>
<path d="M26.6597 11.6578C26.3593 11.6559 26.109 11.4019 26.1109 11.1006C26.1127 10.7984 26.3649 10.55 26.6671 10.5528C26.9684 10.5555 27.2187 10.8077 27.2159 11.109C27.2131 11.4103 26.96 11.6596 26.6597 11.6578Z" fill="black"/>
<path d="M9.98892 27.7614C9.68856 27.754 9.44197 27.4963 9.44938 27.1959C9.45587 26.8947 9.71359 26.649 10.0139 26.6564C10.3152 26.6638 10.5609 26.9206 10.5544 27.221C10.547 27.5223 10.2893 27.7679 9.98985 27.7614H9.98892Z" fill="black"/>
<path d="M3.32256 10.5549C3.62292 10.5466 3.88157 10.7922 3.88991 11.0926C3.89825 11.3929 3.65259 11.6516 3.3513 11.6599C3.05186 11.6683 2.79322 11.4226 2.78488 11.1213C2.77653 10.82 3.02034 10.5632 3.32256 10.5549Z" fill="black"/>
<path d="M19.9924 27.7613C19.692 27.7576 19.4426 27.5027 19.4463 27.2023C19.45 26.901 19.704 26.6526 20.0044 26.6563C20.3057 26.66 20.5541 26.914 20.5504 27.2144C20.5467 27.5157 20.2918 27.7641 19.9924 27.7613Z" fill="black"/>
<path d="M29.4371 9.99034C29.4399 10.2907 29.1905 10.5447 28.8892 10.5475C28.5888 10.5503 28.3348 10.3009 28.3321 9.99961C28.3293 9.69739 28.5768 9.44524 28.879 9.44338C29.1803 9.4406 29.4334 9.68905 29.4362 9.99034H29.4371Z" fill="black"/>
<path d="M2.77844 29.4389C2.7738 29.7402 2.51794 29.9877 2.21758 29.9831C1.91722 29.9785 1.66877 29.7217 1.6734 29.4222C1.67804 29.121 1.93298 28.8734 2.23426 28.879C2.53555 28.8836 2.78307 29.1395 2.77844 29.4399V29.4389Z" fill="black"/>
<path d="M1.6677 10.0091C1.65935 10.3104 1.40071 10.556 1.10127 10.5477C0.800913 10.5393 0.555247 10.2807 0.562664 9.98125C0.57008 9.67904 0.826871 9.43522 1.12909 9.44357C1.43037 9.45191 1.67604 9.70963 1.6677 10.0091Z" fill="black"/>
<path d="M17.774 0.549925C17.7777 0.850287 17.5284 1.10522 17.2271 1.108C16.9267 1.11171 16.6727 0.862338 16.669 0.56105C16.6653 0.260688 16.9137 0.00667883 17.215 0.00297067C17.5163 -0.000737501 17.7703 0.24771 17.7731 0.548998L17.774 0.549925Z" fill="black"/>
<path d="M28.3267 29.4342C28.3239 29.7355 28.0709 29.9849 27.7705 29.983C27.4701 29.9812 27.2198 29.7272 27.2217 29.4268C27.2235 29.1255 27.4766 28.8761 27.7779 28.8789C28.0792 28.8817 28.3295 29.1339 28.3267 29.4352V29.4342Z" fill="black"/>
<path d="M10.5569 11.6603C10.3335 11.6603 10.1601 11.6695 9.98771 11.6584C9.5214 11.6278 9.29613 11.1624 9.56127 10.7777C9.61318 10.7026 9.68364 10.6396 9.74853 10.5738C11.3189 9.00335 12.8893 7.43201 14.4607 5.86253C14.8816 5.44166 15.1189 5.44166 15.5407 5.86253C17.1037 7.4246 18.6657 8.98759 20.2297 10.5478C20.4512 10.7694 20.6441 10.9909 20.4976 11.3367C20.3539 11.676 20.0609 11.6677 19.7661 11.6621C19.6744 11.6603 19.5826 11.6621 19.4417 11.6621C19.4417 11.7993 19.4417 11.9217 19.4417 12.044C19.4417 14.4265 19.4417 16.81 19.4417 19.1925C19.4417 19.8284 19.2794 19.9907 18.6416 19.9907C16.2119 19.9907 13.7821 19.9907 11.3523 19.9907C10.7164 19.9907 10.556 19.8284 10.5551 19.1906C10.5551 16.8192 10.5551 14.4479 10.5551 12.0765V11.6603H10.5569ZM18.5091 10.5422C17.3243 9.36397 16.1275 8.17365 15.0076 7.05934C13.8572 8.20053 12.6669 9.38158 11.4979 10.5422H18.5091ZM13.9119 11.6788V16.6329H16.0951V11.6788H13.9119ZM11.6833 18.856H18.3042V17.788H11.6833V18.856ZM12.7605 16.6431V11.6844H11.6935V16.6431H12.7605ZM17.2483 11.6769V16.6422H18.3153V11.6769H17.2483Z" fill="black"/>
</g>
<defs>
<clipPath id="clip0_2803_2929">
<rect width="30" height="29.987" fill="white"/>
</clipPath>
</defs>
</svg>
