<svg width="24" height="24" viewBox="0 0 24 24" fill="none" xmlns="http://www.w3.org/2000/svg">
<g clip-path="url(#clip0_458_300)">
<path d="M0 14.1485C0.0707595 14.0033 0.125864 13.8473 0.216036 13.7146C0.457745 13.3589 0.805281 13.1942 1.23422 13.1955C1.79654 13.1967 2.35886 13.1955 2.92118 13.1955C3.00509 13.1955 3.08837 13.1955 3.1967 13.1955C3.1967 12.8799 3.1942 12.5931 3.1967 12.3057C3.20296 11.7202 3.16915 11.1309 3.22864 10.5511C3.32883 9.5736 4.08714 8.88228 5.06713 8.8015C5.10408 8.79837 5.14102 8.79149 5.20114 8.78272C5.20114 8.16592 5.1836 7.55852 5.20677 6.95236C5.22556 6.44703 5.25061 5.93543 5.34453 5.44074C5.8937 2.54586 8.38218 0.303474 11.3184 0.0310812C14.9916 -0.310193 18.1877 2.19332 18.7306 5.84839C18.7863 6.22473 18.7888 6.61109 18.7951 6.99244C18.8051 7.58419 18.7976 8.17657 18.7976 8.75892C19.045 8.81465 19.2785 8.84346 19.4946 8.92111C20.2917 9.20728 20.7927 9.95119 20.8014 10.846C20.8077 11.5329 20.8027 12.2205 20.8027 12.9074C20.8027 12.9926 20.8027 13.0771 20.8027 13.1949C20.9047 13.1949 20.988 13.1949 21.0713 13.1949C21.6255 13.1949 22.1803 13.1911 22.7345 13.1961C23.5016 13.203 23.9962 13.6977 23.9975 14.4585C24 15.7472 24 17.0353 23.9975 18.324C23.9962 19.0842 23.4953 19.5839 22.7351 19.5883C22.1183 19.5914 21.5015 19.5908 20.8847 19.592C20.8703 19.592 20.8553 19.5995 20.8139 19.6102C20.8102 19.6841 20.8033 19.7661 20.8033 19.8481C20.802 20.52 20.8039 21.1913 20.8027 21.8632C20.8002 22.9653 20.2122 23.7036 19.1383 23.9584C19.1163 23.9635 19.0976 23.9797 19.0775 23.991H4.92186C4.90182 23.9797 4.88241 23.9635 4.86112 23.9584C3.7872 23.703 3.19921 22.9641 3.1967 21.8645C3.19545 21.1932 3.1967 20.5219 3.19608 19.8506C3.19608 19.768 3.18919 19.6859 3.1848 19.5883C2.50601 19.5883 1.85102 19.5952 1.19665 19.5864C0.677538 19.5795 0.313721 19.3215 0.0945547 18.8544C0.062619 18.7861 0.0319357 18.7166 0.00062619 18.6484C0.00062619 17.1486 0.00062619 15.6483 0.00062619 14.1485H0ZM12.0091 18.7905C15.5621 18.7905 19.1151 18.7905 22.6681 18.7905C23.0695 18.7905 23.1997 18.6596 23.1997 18.257C23.2004 17.0152 23.2004 15.7735 23.1997 14.5324C23.1997 14.1266 23.0732 13.997 22.6718 13.997C15.5577 13.997 8.44418 13.997 1.33003 13.997C0.924883 13.997 0.799019 14.1241 0.798393 14.5286C0.797767 15.7547 0.798393 16.9808 0.798393 18.2069C0.798393 18.6772 0.911107 18.7917 1.37324 18.7917C4.91873 18.7917 8.46359 18.7917 12.0091 18.7917V18.7905ZM4.00762 19.5964C4.00261 19.6897 3.99635 19.7586 3.99635 19.8275C3.99572 20.515 3.99384 21.202 3.99635 21.8895C3.99948 22.6929 4.49793 23.1926 5.2982 23.1926C9.76607 23.1932 14.2339 23.1932 18.7018 23.1926C19.5014 23.1926 19.9986 22.6929 20.0018 21.8876C20.0049 21.2001 20.003 20.5131 20.0018 19.8256C20.0018 19.7504 19.9949 19.6759 19.9905 19.5964H4.00762ZM3.99572 13.1773H19.9786C19.9886 13.1379 19.9999 13.116 19.9999 13.094C20.0011 12.3207 20.0168 11.5474 19.9961 10.7746C19.9774 10.0683 19.4626 9.59677 18.7444 9.59677C14.2465 9.59489 9.74791 9.59489 5.24998 9.59677C4.50481 9.59677 4.00699 10.0977 3.99697 10.8485C3.99134 11.2856 3.99572 11.7233 3.99572 12.1604C3.99572 12.4941 3.99572 12.8279 3.99572 13.1773ZM15.5702 8.7846C15.5702 7.96116 15.6291 7.16089 15.5583 6.37189C15.4005 4.61417 13.9252 3.27788 12.1312 3.19209C10.4129 3.11006 8.77668 4.3399 8.50116 6.04501C8.35839 6.92857 8.43165 7.84719 8.40848 8.75016C8.40848 8.76143 8.4279 8.7727 8.43854 8.78397H15.5696L15.5702 8.7846ZM18.0255 8.78335C17.9973 7.82778 18.0524 6.87472 17.9266 5.9467C17.4576 2.487 14.1406 0.199526 10.7285 0.929664C8.2056 1.46944 6.29133 3.58534 6.04587 6.16399C5.97135 6.9461 6.01143 7.73949 5.99953 8.52786C5.99828 8.61052 5.99953 8.6938 5.99953 8.77834H7.59694C7.59694 8.41702 7.58943 8.07325 7.59882 7.73072C7.61447 7.16965 7.5769 6.59731 7.67459 6.05002C8.09476 3.69805 10.118 2.19833 12.5056 2.42563C14.4794 2.61349 16.1783 4.28605 16.3548 6.26606C16.4212 7.0106 16.3893 7.76328 16.4018 8.51283C16.4031 8.60238 16.4018 8.69192 16.4018 8.78397H18.0255V8.78335Z" fill="black"/>
<path d="M3.92433 16.391C4.15351 16.545 4.35452 16.6765 4.5524 16.8124C4.79599 16.9802 4.86236 17.2082 4.72961 17.4086C4.59498 17.6121 4.36016 17.6402 4.11344 17.4806C3.95752 17.3798 3.80347 17.2758 3.60309 17.1431C3.60309 17.3121 3.60873 17.4392 3.60184 17.5664C3.58806 17.8218 3.42025 17.9934 3.19482 17.9903C2.96626 17.9872 2.81347 17.8187 2.80533 17.5557C2.80157 17.4342 2.8047 17.3121 2.8047 17.1449C2.60557 17.2739 2.44527 17.3791 2.28371 17.4824C2.03699 17.6396 1.79904 17.6108 1.66754 17.4086C1.53291 17.2013 1.5974 16.9865 1.846 16.8156C2.03887 16.6834 2.23236 16.5526 2.42523 16.4204C2.43024 16.4167 2.43086 16.4067 2.44464 16.3728C2.22798 16.2263 2.00318 16.0792 1.78401 15.9245C1.63811 15.8218 1.54293 15.6652 1.62245 15.5024C1.68319 15.3791 1.81595 15.2639 1.94369 15.21C2.02572 15.1756 2.16786 15.2401 2.26555 15.2933C2.43525 15.3853 2.59117 15.5031 2.8047 15.644C2.8047 15.4718 2.80094 15.3453 2.80533 15.2188C2.81409 14.9639 2.95624 14.8086 3.18167 14.7992C3.41586 14.7898 3.58431 14.9489 3.60059 15.2056C3.60873 15.3296 3.60184 15.4542 3.60184 15.6339C3.81099 15.4981 3.98695 15.381 4.16541 15.2682C4.32634 15.1662 4.51295 15.1436 4.63631 15.2883C4.7246 15.3916 4.77031 15.5638 4.76468 15.7022C4.76092 15.793 4.6457 15.8969 4.55678 15.9639C4.36454 16.1092 4.1579 16.2351 3.92308 16.391H3.92433Z" fill="black"/>
<path d="M11.2552 16.3782C11.041 16.2342 10.8337 16.0983 10.629 15.9574C10.3992 15.7996 10.3372 15.5736 10.4655 15.3776C10.5952 15.1797 10.8281 15.1428 11.061 15.2862C11.1475 15.3394 11.2295 15.3989 11.314 15.4546C11.391 15.5047 11.4687 15.5535 11.5996 15.6362C11.5996 15.4671 11.5933 15.34 11.6008 15.2141C11.6171 14.9486 11.7736 14.7933 12.0097 14.799C12.2339 14.804 12.381 14.9568 12.3973 15.2123C12.4055 15.3356 12.3986 15.4596 12.3986 15.6368C12.5977 15.5072 12.7561 15.4026 12.9164 15.2999C13.1619 15.1428 13.3992 15.1728 13.5314 15.3769C13.6591 15.5748 13.599 15.7996 13.3686 15.9593C13.165 16.1002 12.9578 16.2348 12.7255 16.3901C12.9471 16.5398 13.1456 16.6732 13.3435 16.8084C13.6002 16.9844 13.6679 17.2154 13.5238 17.4202C13.3867 17.615 13.1513 17.6362 12.9027 17.4747C12.748 17.3745 12.5952 17.2724 12.4211 17.1578C12.3623 17.4972 12.5169 17.9606 12.0191 17.9763C11.48 17.9938 11.6371 17.5047 11.5795 17.1585C11.3998 17.2756 11.2464 17.3776 11.0911 17.4778C10.8431 17.6375 10.6058 17.6131 10.4718 17.4158C10.3347 17.2142 10.3992 16.9856 10.6415 16.8197C10.8344 16.6876 11.0291 16.5573 11.2226 16.4264C11.2282 16.4227 11.2314 16.4139 11.2558 16.3782H11.2552Z" fill="black"/>
<path d="M7.18552 15.6344C7.24188 15.2762 7.07469 14.7884 7.62699 14.8134C8.11228 14.836 7.97327 15.2768 8.0171 15.6237C8.18805 15.5135 8.34022 15.4171 8.4905 15.3188C8.75413 15.1459 8.98707 15.1647 9.12671 15.3714C9.2651 15.5761 9.19371 15.8053 8.9351 15.9813C8.74223 16.1128 8.54749 16.2418 8.32644 16.3908C8.5406 16.5355 8.73973 16.667 8.93635 16.8022C9.19747 16.9813 9.26698 17.2067 9.12859 17.4127C8.9902 17.6181 8.75225 17.6394 8.4905 17.4678C8.34272 17.3708 8.19557 17.2719 8.0027 17.1435C8.0027 17.3119 8.00771 17.4328 8.00145 17.5536C7.98767 17.8254 7.81797 18.0007 7.58441 17.9913C7.35585 17.9826 7.21245 17.8166 7.20368 17.5467C7.19992 17.4315 7.20305 17.3157 7.20305 17.1435C7.00643 17.2725 6.84863 17.3771 6.68895 17.4797C6.44098 17.6388 6.20366 17.6138 6.07028 17.4152C5.93251 17.2099 5.99451 16.9888 6.24123 16.8204C6.43973 16.6845 6.64136 16.5524 6.87806 16.3939C6.65138 16.2418 6.44724 16.1078 6.24561 15.97C5.99701 15.8003 5.93189 15.5805 6.06589 15.3764C6.19865 15.1741 6.43409 15.1447 6.68144 15.3025C6.83861 15.4027 6.99265 15.5072 7.1849 15.635L7.18552 15.6344Z" fill="black"/>
<path d="M17.1244 16.3909C17.3348 16.5318 17.5089 16.6489 17.683 16.766C17.9986 16.9782 18.0787 17.193 17.9247 17.4159C17.7788 17.6276 17.5446 17.6345 17.2465 17.4372C17.1119 17.3483 16.9766 17.2594 16.7932 17.1392C16.7932 17.3233 16.8001 17.4604 16.7919 17.5957C16.7775 17.8292 16.6228 17.9833 16.4093 17.9895C16.2002 17.9952 16.0267 17.8449 16.0029 17.6169C15.9885 17.4792 16.0004 17.3383 16.0004 17.1473C15.8032 17.275 15.6441 17.379 15.4844 17.4811C15.2377 17.6389 15.0004 17.6107 14.8676 17.409C14.7349 17.2074 14.8031 16.9814 15.048 16.8148C15.2471 16.6802 15.4469 16.5474 15.6785 16.3927C15.4506 16.2406 15.2458 16.1059 15.0436 15.9676C14.8013 15.8016 14.7355 15.5706 14.8695 15.3714C15.0054 15.1698 15.2352 15.1435 15.4857 15.3025C15.6366 15.3983 15.7869 15.4967 15.9378 15.5931C15.9428 15.5962 15.9522 15.5912 15.9973 15.5837C15.9973 15.4641 15.9904 15.3364 15.9985 15.2092C16.0161 14.9487 16.1795 14.7916 16.4143 14.7991C16.6397 14.8066 16.7831 14.9606 16.7944 15.2161C16.8001 15.3382 16.7957 15.461 16.7957 15.6388C16.996 15.5079 17.1545 15.404 17.3142 15.3013C17.5602 15.1429 17.7976 15.171 17.9303 15.3733C18.0643 15.5781 18.0005 15.7991 17.7537 15.9701C17.5559 16.1066 17.3549 16.2381 17.1257 16.3915L17.1244 16.3909Z" fill="black"/>
<path d="M20.8121 17.194C21.1865 17.194 21.5604 17.1922 21.9348 17.1947C22.2122 17.1965 22.3919 17.3506 22.3988 17.5816C22.4057 17.8202 22.2172 17.9906 21.9323 17.9912C21.1765 17.9937 20.4201 17.9937 19.6643 17.9912C19.37 17.9899 19.2003 17.8315 19.2071 17.5791C19.214 17.3374 19.3787 17.1965 19.6668 17.1947C20.0487 17.1922 20.4307 17.194 20.8127 17.194H20.8121Z" fill="black"/>
<path d="M5.59813 11.1929C5.59813 11.4578 5.60188 11.6908 5.59688 11.9231C5.59061 12.2218 5.43657 12.3927 5.18985 12.3865C4.95503 12.3808 4.80349 12.2105 4.79848 11.9268C4.79222 11.5686 4.79159 11.2105 4.79848 10.8523C4.80474 10.5373 4.95002 10.3983 5.26249 10.3952C5.62881 10.392 5.99451 10.3914 6.36083 10.3952C6.62383 10.3983 6.79165 10.553 6.79603 10.7822C6.80104 11.0182 6.62571 11.1848 6.35457 11.1911C6.11411 11.1961 5.87303 11.1923 5.5975 11.1923L5.59813 11.1929Z" fill="black"/>
</g>
<defs>
<clipPath id="clip0_458_300">
<rect width="24" height="23.9919" fill="white"/>
</clipPath>
</defs>
</svg>
