<svg width="30" height="25" viewBox="0 0 30 25" fill="none" xmlns="http://www.w3.org/2000/svg">
<g clip-path="url(#clip0_2803_2920)">
<path d="M16.0117 0C20.0949 0 24.1789 0 28.2621 0C29.4156 0 29.999 0.575929 29.999 1.71695C29.999 7.72629 29.999 13.7356 29.999 19.7458C29.999 20.8735 29.4139 21.4611 28.2912 21.4611C23.062 21.4611 17.832 21.4627 12.6028 21.4569C12.3611 21.4569 12.2227 21.5153 12.091 21.7403C10.6891 24.1482 7.93368 25.3684 5.17656 24.8216C2.55195 24.3015 0.454935 22.112 0.0740381 19.4432C-0.224345 17.3496 0.376588 15.5218 1.81683 13.9673C1.91101 13.8656 1.98269 13.7031 1.98686 13.5664C2.00436 12.943 1.98936 12.3187 1.99853 11.6953C2.00103 11.5228 1.95519 11.4511 1.77432 11.4002C0.990858 11.1802 0.490774 10.5051 0.495775 9.71662C0.500776 8.94399 1.00169 8.27388 1.77349 8.06551C1.98436 8.00883 1.99769 7.90798 1.99686 7.73879C1.99352 5.71095 1.99436 3.68395 1.99519 1.65611C1.99603 0.600934 2.60196 0 3.66714 0C7.78199 0 11.8968 0 16.0117 0ZM12.7228 7.7738C12.8295 7.68878 12.9353 7.60627 13.0387 7.52125C13.8255 6.87281 14.6081 6.21854 15.4016 5.5776C15.5591 5.45007 15.6058 5.34422 15.555 5.13919C15.3157 4.17986 15.905 3.25804 16.8768 3.04051C17.802 2.83381 18.7363 3.4289 18.938 4.35323C19.1489 5.32172 18.5546 6.23104 17.5861 6.44107C17.0985 6.54692 16.6626 6.4169 16.2359 6.1777C15.4191 6.85031 14.6156 7.52709 13.7938 8.18136C13.5088 8.40807 13.2712 8.61394 13.4779 9.01233C13.4996 9.05484 13.4913 9.11485 13.4913 9.16653C13.4921 9.88415 13.1896 10.4401 12.5528 10.7735C11.9035 11.1127 11.2526 11.056 10.6758 10.6043C10.1015 10.1542 9.88317 9.54826 10.0549 8.83064C10.099 8.64394 10.0732 8.53892 9.91401 8.41807C9.29224 7.94632 8.68631 7.45374 8.0687 6.977C7.99786 6.92282 7.8745 6.87615 7.79782 6.89948C7.29024 7.05451 6.81183 6.982 6.34175 6.73696C5.54245 7.44624 4.74648 8.14802 3.96052 8.86064C3.89884 8.91649 3.86634 9.06151 3.89051 9.14569C4.13972 10.0275 3.90384 10.6851 3.13455 11.2277C3.07537 11.2694 3.00286 11.3469 3.00203 11.4094C2.99119 11.9237 2.99619 12.4379 2.99619 12.9697C5.58912 11.5561 8.12371 11.5478 10.4599 13.3481C12.8045 15.1559 13.4271 17.6171 12.7153 20.4551C12.7795 20.4576 12.8303 20.4626 12.882 20.4626C18.0495 20.4626 23.2162 20.4626 28.3838 20.4626C28.8263 20.4626 28.9997 20.2825 28.9997 19.83C29.0005 13.7681 29.0005 7.70628 28.9997 1.64527C28.9997 1.16269 28.8305 0.999333 28.3346 0.999333C20.1149 0.999333 11.8952 0.999333 3.67547 0.999333C3.15872 0.999333 2.99536 1.15769 2.99536 1.66111C2.99452 3.74062 2.99369 5.82014 2.99869 7.89965C2.99869 8.00217 3.05203 8.10385 3.08121 8.20553C3.16705 8.15969 3.2654 8.12802 3.33625 8.06551C4.04803 7.44041 4.75065 6.8053 5.46744 6.18686C5.62746 6.04934 5.64747 5.94182 5.58412 5.74012C5.28741 4.7883 5.85083 3.80063 6.80849 3.55309C7.77449 3.30305 8.72048 3.88315 8.95469 4.86081C9.0697 5.34172 8.94302 5.78096 8.72131 6.21437C9.36642 6.72279 9.99319 7.22037 10.6258 7.71045C10.6766 7.74963 10.7875 7.76963 10.8383 7.74129C11.4693 7.3904 12.0919 7.41707 12.7236 7.7763L12.7228 7.7738ZM1.93351 21.4861C3.01203 23.2514 5.50994 24.4866 8.04203 23.7315C10.2124 23.0838 12.046 20.8468 11.9268 18.9832C11.8985 18.9782 11.8685 18.9673 11.8385 18.9673C10.1524 18.9665 8.46544 18.9648 6.77932 18.9682C6.69014 18.9682 6.59012 18.9865 6.51261 19.0282C4.99152 19.8408 3.47294 20.6584 1.93351 21.4861ZM5.99586 12.9955C4.0622 13.2455 2.60363 14.1582 1.67681 15.8385C0.829164 17.3746 0.779989 18.9698 1.43593 20.6184C2.92951 19.8166 4.38642 19.039 5.83416 18.2447C5.92501 18.1947 5.98836 18.0138 5.98919 17.893C6.00003 16.5736 5.99586 15.255 5.99586 13.9357C5.99586 13.6364 5.99586 13.3372 5.99586 12.9955ZM7.00769 17.948H11.9485C11.7326 15.0275 9.13472 13.0847 7.00769 13.0422V17.948ZM17.9954 4.74829C17.9995 4.33739 17.6586 3.99483 17.2461 3.994C16.8485 3.994 16.5109 4.32072 16.4984 4.71829C16.4859 5.12835 16.821 5.48008 17.2319 5.48841C17.6428 5.49592 17.9912 5.15836 17.9954 4.74829ZM7.25857 5.98766C7.66864 5.98016 8.00536 5.6276 7.99286 5.21837C7.98036 4.8208 7.64363 4.49325 7.24607 4.49325C6.8335 4.49325 6.49344 4.83581 6.49677 5.24671C6.50011 5.65761 6.84767 5.99433 7.25857 5.98766ZM11.7451 8.48641C11.3326 8.48725 10.9934 8.83064 10.9975 9.24154C11.0017 9.65244 11.3493 9.98916 11.761 9.98083C12.1594 9.97333 12.4894 9.63994 12.4936 9.24154C12.4978 8.83147 12.1552 8.48558 11.7451 8.48641ZM2.99286 9.73496C2.99286 9.32405 2.64947 8.98233 2.23857 8.98566C1.8385 8.989 1.50428 9.31739 1.49594 9.71495C1.48761 10.1259 1.82266 10.4734 2.2344 10.4801C2.64363 10.4867 2.99119 10.145 2.99202 9.73496H2.99286Z" fill="black"/>
<path d="M22.9981 15.9696H23.4982V15.6353C23.4982 14.4601 23.4965 13.2858 23.4982 12.1106C23.499 11.3855 23.8924 10.9946 24.6184 10.9912C24.8267 10.9904 25.0351 10.9912 25.2435 10.9912C26.1403 10.9912 26.4978 11.343 26.4978 12.2281C26.4978 13.3508 26.4978 14.4735 26.4978 15.5962C26.4978 15.7095 26.4978 15.8229 26.4978 15.9821C26.8096 15.9821 27.1071 15.9796 27.4038 15.9821C27.7714 15.9862 27.9956 16.1779 27.9956 16.4805C27.9956 16.7822 27.7697 16.9781 27.403 16.9781C23.7674 16.9797 20.1318 16.9822 16.497 16.9756C15.6427 16.9739 15.0009 16.3204 14.9993 15.4628C14.9934 12.8432 14.9959 10.2228 14.9976 7.60316C14.9976 7.2306 15.1826 7.00806 15.4835 6.99973C15.7952 6.99139 15.9953 7.2231 15.9961 7.60816C15.9978 10.1861 15.9961 12.7649 15.9978 15.3428C15.9978 15.7512 16.0886 15.8704 16.482 15.9704C16.487 15.8579 16.497 15.7504 16.497 15.642C16.4978 13.9784 16.497 12.3148 16.4978 10.652C16.4978 9.86854 16.8787 9.49431 17.6722 9.49348C17.9222 9.49348 18.1723 9.49181 18.4223 9.49348C19.0816 9.49931 19.4958 9.90771 19.4967 10.5653C19.5 12.2498 19.4975 13.9334 19.4975 15.6178C19.4975 15.7295 19.4975 15.8412 19.4975 15.9671H19.9976V15.6378C19.9976 13.475 19.9976 11.3129 19.9976 9.15009C19.9976 8.38079 20.3802 7.9974 21.1453 7.99573C21.4053 7.99573 21.6662 7.99323 21.9262 7.99573C22.583 8.0024 22.9956 8.41163 22.9964 9.07174C22.9989 11.2546 22.9973 13.4383 22.9973 15.6212V15.9679L22.9981 15.9696ZM21.9771 15.9679V9.01923H21.0128V15.9679H21.9771ZM18.4765 15.9679V10.517H17.513V15.9679H18.4765ZM24.52 12.0039V15.9579H25.4835V12.0039H24.52Z" fill="black"/>
<path d="M24.7483 12.0006C25.4568 12.0006 26.1652 11.999 26.8728 12.0006C27.2671 12.0015 27.4954 12.1873 27.4954 12.499C27.4954 12.8091 27.2654 12.9975 26.872 12.9975C25.4551 12.9991 24.039 12.9991 22.6221 12.9975C22.2287 12.9975 21.9995 12.8099 21.9995 12.499C21.9995 12.1882 22.2287 12.0023 22.6221 12.0006C23.3306 11.9981 24.039 12.0006 24.7466 12.0006H24.7483Z" fill="black"/>
<path d="M24.7548 12.0026C25.4633 12.0026 26.1718 12.0009 26.8794 12.0026C27.2703 12.0042 27.5003 12.1959 27.4961 12.5068C27.492 12.816 27.2628 12.9986 26.8669 12.9986C25.45 13.0002 24.0339 13.0002 22.617 12.9986C22.2261 12.9986 21.9961 12.806 22.0011 12.4935C22.0052 12.1842 22.2336 12.0026 22.6303 12.0017C23.3388 12.0001 24.0472 12.0017 24.7548 12.0017V12.0026Z" fill="black"/>
<path d="M24.7489 12.9971C24.0405 12.9971 23.332 12.9988 22.6244 12.9971C22.2302 12.9963 22.0018 12.8096 22.001 12.4987C22.001 12.1878 22.2302 12.0003 22.6236 12.0003C24.0405 11.9986 25.4566 11.9986 26.8735 12.0003C27.2677 12.0003 27.4961 12.187 27.4969 12.4979C27.4969 12.8079 27.2677 12.9954 26.8743 12.9971C26.1658 12.9996 25.4574 12.9971 24.7498 12.9971H24.7489Z" fill="black"/>
<path d="M21.0117 12.0002C21.2792 12.0077 21.4993 12.2361 21.4959 12.5036C21.4926 12.772 21.2684 12.9945 21 12.9945C20.7191 12.9945 20.4883 12.7553 20.4999 12.4761C20.5116 12.2086 20.7433 11.9927 21.0109 12.0002H21.0117Z" fill="black"/>
<path d="M21.0046 12.0005C21.2729 12.0039 21.4955 12.2289 21.4963 12.4964C21.4972 12.764 21.2763 12.9899 21.0079 12.9949C20.727 12.9999 20.4937 12.764 20.5012 12.4839C20.5087 12.2164 20.737 11.9972 21.0046 12.0005Z" fill="black"/>
<path d="M21.002 12.9945C20.7337 12.9961 20.5078 12.7761 20.5011 12.5086C20.4944 12.2285 20.7303 11.9935 21.0104 12.0001C21.2779 12.0068 21.4988 12.2343 21.4963 12.5019C21.4938 12.7703 21.2704 12.9928 21.002 12.9945Z" fill="black"/>
</g>
<defs>
<clipPath id="clip0_2803_2920">
<rect width="30" height="24.9517" fill="black"/>
</clipPath>
</defs>
</svg>
