<svg width="30" height="33" viewBox="0 0 30 33" fill="none" xmlns="http://www.w3.org/2000/svg">
<g clip-path="url(#clip0_2803_3080)">
<path d="M5.06884 5.89829C5.06884 5.71463 5.06181 5.56348 5.0706 5.41408C5.09081 5.06169 5.2815 4.85957 5.6295 4.85517C6.49511 4.84551 7.36159 4.84639 8.2272 4.8543C8.59277 4.85781 8.78522 5.06081 8.80456 5.4299C8.81159 5.57051 8.80544 5.71287 8.80544 5.89829C8.9478 5.89829 9.06468 5.89829 9.18156 5.89829C10.2229 5.89829 11.2643 5.89478 12.3056 5.89917C13.3145 5.90357 13.8734 6.46511 13.8734 7.46868C13.8743 13.114 13.8743 18.7585 13.8734 24.4038C13.8734 25.3819 13.2987 25.9619 12.3215 25.9627C8.73689 25.9654 5.15232 25.9654 1.56688 25.9627C0.568575 25.9627 0.000878786 25.3871 0 24.3862C0 18.7523 0 13.1184 0 7.4845C0 6.45808 0.553635 5.90357 1.58445 5.89917C2.61527 5.89566 3.6452 5.89829 4.67602 5.89829C4.79466 5.89829 4.91241 5.89829 5.06884 5.89829ZM11.5719 23.6735V8.18226H8.82829C8.82038 8.24905 8.81071 8.30177 8.80807 8.3545C8.78347 8.9758 8.64022 9.11289 8.00574 9.11377C7.39147 9.11377 6.7772 9.11377 6.16381 9.11377C5.51175 9.11377 5.13445 8.80327 5.03193 8.18226H2.31033V23.6726H11.5727L11.5719 23.6735ZM5.0495 6.5732C4.95899 6.56617 4.88429 6.5565 4.81047 6.5565C3.72517 6.55563 2.63899 6.55211 1.55369 6.5565C0.926241 6.55914 0.65909 6.8342 0.65909 7.46781C0.658211 13.1035 0.658211 18.7391 0.65909 24.3757C0.65909 25.0224 0.93415 25.3045 1.57566 25.3045C5.15057 25.3072 8.72547 25.3072 12.3004 25.3045C12.9392 25.3045 13.2152 25.0198 13.2152 24.373C13.2161 18.7374 13.2161 13.1017 13.2152 7.46517C13.2152 6.8342 12.9454 6.56002 12.3179 6.5565C11.4849 6.55123 10.6509 6.55475 9.8178 6.55475C9.49177 6.55475 9.16662 6.55475 8.83268 6.55475V7.50647C9.82131 7.50647 10.7853 7.50471 11.7494 7.50647C12.1606 7.50735 12.2468 7.59523 12.2468 8.01265C12.2468 13.2871 12.2468 18.5607 12.2468 23.8352C12.2468 24.264 12.1721 24.3396 11.7546 24.3396C8.5418 24.3396 5.32808 24.3396 2.11524 24.3396C1.70748 24.3396 1.62927 24.2649 1.62839 23.8633C1.62751 18.5678 1.62751 13.2713 1.62839 7.97574C1.62839 7.60402 1.7233 7.50911 2.09678 7.50823C2.96327 7.50472 3.82975 7.50735 4.69535 7.50735C4.81135 7.50735 4.92735 7.50735 5.04863 7.50735V6.57408L5.0495 6.5732ZM5.73935 5.52217V8.4292H8.12174V5.52217H5.73935Z" fill="black"/>
<path d="M29.9956 10.1968C29.9956 10.7996 29.9886 11.4016 29.9991 12.0044C30.0035 12.2584 29.906 12.4069 29.6687 12.5053C28.0834 13.1644 26.5033 13.8376 24.9145 14.4896C24.7642 14.5512 24.5427 14.5468 24.3907 14.4844C22.8221 13.8411 21.2631 13.175 19.6962 12.5291C19.4203 12.4157 19.3183 12.2549 19.3219 11.9596C19.335 10.7768 19.3333 9.59305 19.3219 8.41021C19.3192 8.13075 19.4115 7.97257 19.6778 7.86272C21.2543 7.21066 22.8221 6.53839 24.4004 5.88985C24.5506 5.82833 24.7712 5.83536 24.9232 5.89776C26.5015 6.54542 28.0711 7.21506 29.6467 7.86887C29.8945 7.97169 30.0035 8.11933 29.9982 8.38912C29.9859 8.99108 29.9947 9.59393 29.9947 10.1968H29.9956ZM28.7671 8.25115C28.6994 8.20457 28.6678 8.17381 28.6308 8.15887C27.361 7.62457 26.092 7.08763 24.8178 6.56563C24.7062 6.51994 24.5383 6.54279 24.4197 6.59112C23.2061 7.09027 21.9978 7.60172 20.7894 8.11142C20.713 8.14393 20.6427 8.19051 20.5372 8.24763C21.4635 8.63781 22.3493 9.0113 23.236 9.3839C23.7 9.57811 24.1649 9.91996 24.6297 9.91996C25.106 9.91996 25.585 9.59129 26.0578 9.39445C26.9515 9.02272 27.8426 8.64133 28.7671 8.25115ZM19.9827 8.73272C19.9827 9.73102 19.9924 10.6827 19.9766 11.6336C19.9722 11.8761 20.0644 11.9719 20.2745 12.0572C21.3369 12.4922 22.3932 12.943 23.4522 13.3877C23.7316 13.5045 24.0128 13.617 24.3318 13.7471C24.3318 12.6978 24.3371 11.6934 24.3222 10.6889C24.3213 10.6107 24.1912 10.5035 24.0981 10.4631C23.3555 10.1414 22.6076 9.83296 21.8616 9.52011C21.249 9.26351 20.6365 9.00602 19.9845 8.73184L19.9827 8.73272ZM24.9918 13.7427C25.1544 13.6803 25.2765 13.6372 25.3952 13.5871C26.4541 13.1416 27.5122 12.6943 28.5711 12.2487C29.082 12.0337 29.3374 11.6482 29.3374 11.0923V8.77402C29.2794 8.77402 29.2557 8.76787 29.2381 8.7749C27.876 9.34523 26.513 9.91557 25.1552 10.4956C25.0806 10.5272 25.0006 10.6502 24.9997 10.7311C24.9892 11.7162 24.9927 12.7022 24.9927 13.7427H24.9918Z" fill="black"/>
<path d="M19.3269 21.5644C19.3269 20.9615 19.3339 20.3596 19.3234 19.7567C19.319 19.5045 19.4069 19.3551 19.6477 19.2558C21.2435 18.5932 22.8333 17.9157 24.4309 17.2575C24.5645 17.2021 24.7613 17.2038 24.8949 17.2592C26.4917 17.9192 28.0823 18.5958 29.6764 19.262C29.8978 19.3542 29.9989 19.4922 29.998 19.7348C29.9919 20.9615 29.9927 22.1883 29.998 23.416C29.9989 23.6427 29.9084 23.786 29.7001 23.873C28.0858 24.5487 26.4741 25.2307 24.8562 25.8968C24.7323 25.9478 24.5478 25.9346 24.4204 25.8819C22.8236 25.2219 21.2321 24.547 19.6371 23.8817C19.4139 23.7886 19.3199 23.648 19.3243 23.4054C19.3348 22.792 19.3278 22.1787 19.3278 21.5653L19.3269 21.5644ZM20.5396 19.6126C20.6178 19.6539 20.653 19.675 20.6899 19.6908C21.9483 20.2207 23.2059 20.755 24.4696 21.2726C24.5908 21.3218 24.7701 21.3043 24.8967 21.2524C26.0092 20.7972 27.1165 20.3288 28.2237 19.8622C28.3951 19.7901 28.563 19.711 28.7747 19.6161C28.6798 19.5669 28.6438 19.5449 28.6051 19.5282C27.3564 19.0018 26.1094 18.4711 24.8554 17.9587C24.7253 17.906 24.5328 17.9253 24.3975 17.9807C23.2147 18.4658 22.038 18.9658 20.8604 19.4623C20.7637 19.5027 20.6706 19.5502 20.5396 19.6108V19.6126ZM19.9825 20.1135C19.9825 21.1654 19.9755 22.1505 19.9939 23.1357C19.9957 23.2306 20.1345 23.365 20.24 23.4107C21.4861 23.9468 22.7375 24.4688 23.988 24.9934C24.0917 25.0365 24.2007 25.0672 24.3316 25.1129C24.3316 24.0944 24.3386 23.1198 24.3219 22.1453C24.3202 22.0433 24.2051 21.8966 24.1049 21.85C23.6602 21.6408 23.2015 21.4589 22.748 21.2691C21.842 20.8904 20.936 20.5125 19.9825 20.1135ZM29.3363 20.1197C29.2045 20.1706 29.1148 20.204 29.0261 20.2409C27.997 20.6724 26.968 21.1021 25.9407 21.5363C25.6296 21.6672 25.2051 21.7305 25.0478 21.9677C24.8896 22.2059 24.9942 22.6224 24.9924 22.9608C24.9889 23.6691 24.9916 24.3765 24.9916 25.0857C25.0469 25.0857 25.0715 25.0918 25.0891 25.0848C26.4512 24.5153 27.8142 23.9477 29.172 23.3685C29.2475 23.336 29.3293 23.2121 29.3301 23.1304C29.3407 22.1453 29.3372 21.1593 29.3372 20.1197H29.3363Z" fill="black"/>
<path d="M21.8468 2.48C21.8468 1.81916 21.8433 1.17413 21.8503 0.529099C21.8521 0.403432 21.8591 0.245251 21.9312 0.161766C21.998 0.0844328 22.1939 0.0237965 22.2669 0.066857C22.375 0.131008 22.4839 0.28919 22.491 0.413978C22.5481 1.35516 22.578 2.29722 22.6228 3.23927C22.6377 3.54773 22.4927 3.67515 22.1948 3.6857C21.2967 3.71997 20.3986 3.76303 19.5005 3.80258C19.446 3.80521 19.3739 3.82806 19.3388 3.80258C19.2122 3.70855 19.0224 3.61452 18.9952 3.48973C18.9486 3.2797 19.112 3.15843 19.3361 3.14964C19.895 3.12767 20.4539 3.10394 21.012 3.08021C21.1394 3.07494 21.2659 3.06264 21.4232 2.973C21.0436 2.70409 20.6754 2.41761 20.2826 2.16979C16.4757 -0.228415 11.4147 0.276887 8.15181 3.37285C8.09645 3.42558 8.04021 3.4783 7.98485 3.53103C7.82315 3.68482 7.64475 3.756 7.46724 3.57233C7.2906 3.38955 7.36003 3.21027 7.52612 3.05912C7.77657 2.82976 8.02175 2.59249 8.28627 2.37982C12.2267 -0.788202 17.7183 -0.793474 21.6851 2.36137C21.7422 2.40706 21.8038 2.44837 21.8459 2.48H21.8468Z" fill="black"/>
<path d="M8.0618 29.689C8.0908 30.3481 8.11716 30.9272 8.14265 31.5063C8.14704 31.6162 8.15231 31.7252 8.15144 31.835C8.14968 32.0556 8.04159 32.1979 7.81662 32.1953C7.6101 32.1935 7.50465 32.0617 7.49498 31.8543C7.4528 30.8903 7.40886 29.9272 7.36932 28.9631C7.35789 28.6942 7.4941 28.5606 7.76389 28.5492C8.69453 28.5106 9.62604 28.4692 10.5567 28.4271C10.7887 28.4165 10.9943 28.4666 11.0066 28.7364C11.0198 29.0299 10.8062 29.0809 10.5611 29.087C10.0241 29.102 9.48807 29.1292 8.95113 29.1529C8.83513 29.1582 8.72001 29.1714 8.53283 29.1872C9.16819 29.754 9.81937 30.1688 10.5127 30.5133C14.3117 32.4018 18.8058 31.7287 21.8886 28.8155C21.9361 28.7707 21.9844 28.725 22.0327 28.6802C22.1909 28.5343 22.3614 28.4912 22.5249 28.6582C22.6892 28.8252 22.6479 28.9992 22.4906 29.1477C22.2595 29.3656 22.0283 29.5853 21.7832 29.7865C17.8401 33.0161 12.2958 33.0495 8.3105 29.8709C8.25337 29.8252 8.19186 29.7839 8.06092 29.6881L8.0618 29.689Z" fill="black"/>
<path d="M8.56385 18.6715C9.02346 18.6715 9.48306 18.6671 9.94355 18.6724C10.4155 18.6785 10.6387 18.9079 10.6501 19.3851C10.6527 19.516 10.6545 19.6478 10.6501 19.7788C10.6325 20.2041 10.3926 20.4501 9.96727 20.4537C9.03664 20.4607 8.106 20.4607 7.17625 20.4537C6.74037 20.451 6.51189 20.2173 6.49343 19.7849C6.48816 19.6645 6.4908 19.5441 6.49167 19.4237C6.49958 18.8815 6.70698 18.6741 7.25095 18.6706C7.68858 18.668 8.12709 18.6706 8.56473 18.6706L8.56385 18.6715ZM9.98485 19.3552H7.16394V19.7735H9.98485V19.3552Z" fill="black"/>
<path d="M8.58216 13.1844C8.11113 13.1844 7.64098 13.1914 7.16995 13.1826C6.72616 13.1739 6.5091 12.9515 6.49153 12.5148C6.48713 12.4058 6.48889 12.2959 6.49065 12.1861C6.49592 11.6079 6.70595 11.3952 7.28683 11.3934C8.12958 11.3899 8.97234 11.3908 9.8151 11.3934C10.432 11.3952 10.6482 11.6114 10.6508 12.2204C10.6508 12.3082 10.6526 12.3952 10.6508 12.4831C10.6368 12.9392 10.4144 13.173 9.96273 13.1826C9.50313 13.1923 9.04352 13.1844 8.58392 13.1844H8.58216ZM7.1638 12.4981H9.97416V12.078H7.1638V12.4981Z" fill="black"/>
<path d="M8.56629 15.0368C9.0259 15.0368 9.4855 15.0298 9.94511 15.0386C10.4179 15.0474 10.6385 15.2785 10.649 15.7566C10.6517 15.8875 10.6534 16.0193 10.6481 16.1503C10.6297 16.5607 10.4012 16.8173 9.99432 16.8225C9.0426 16.8357 8.08999 16.8357 7.13739 16.8225C6.72436 16.8164 6.50818 16.5686 6.49148 16.1503C6.48709 16.0299 6.48796 15.9095 6.48972 15.7891C6.49763 15.2513 6.70678 15.0421 7.25251 15.0377C7.69014 15.0333 8.12778 15.0377 8.56629 15.0377V15.0368ZM9.97411 15.7135H7.16727V16.152H9.97411V15.7135Z" fill="black"/>
<path d="M4.22348 12.6071C4.67518 12.1607 5.06009 11.7864 5.43797 11.4058C5.59966 11.2424 5.77191 11.1246 5.97403 11.3145C6.19284 11.5192 6.07333 11.7038 5.90197 11.8751C5.46872 12.3092 5.03988 12.7486 4.60576 13.1819C4.3553 13.4323 4.21206 13.435 3.966 13.1968C3.76124 12.9991 3.56352 12.7934 3.36227 12.5922C3.21024 12.4402 3.16015 12.2723 3.32273 12.1027C3.49936 11.9199 3.67864 11.9674 3.8333 12.1388C3.97127 12.2917 4.09694 12.4551 4.22348 12.608V12.6071Z" fill="black"/>
<path d="M4.2443 19.8561C4.67051 19.4334 5.0519 19.06 5.42802 18.6803C5.59675 18.5098 5.77953 18.3754 5.98781 18.5889C6.19344 18.7998 6.05811 18.9835 5.88938 19.1513C5.46317 19.5767 5.04311 20.0073 4.61778 20.4335C4.34184 20.7094 4.21969 20.7077 3.93584 20.4282C3.74075 20.2358 3.54918 20.0407 3.35584 19.8473C3.2003 19.6918 3.16427 19.5222 3.33212 19.3605C3.49645 19.2023 3.67045 19.2313 3.82248 19.3895C3.95869 19.5319 4.08699 19.6813 4.24517 19.8561H4.2443Z" fill="black"/>
<path d="M4.2322 16.2592C4.67423 15.8128 5.05299 15.4358 5.42384 15.0535C5.59169 14.8804 5.77623 14.7494 5.98362 14.9551C6.1919 15.1616 6.06096 15.3488 5.89135 15.5175C5.45811 15.9507 5.03014 16.3892 4.59602 16.8216C4.35611 17.0606 4.2032 17.0589 3.95714 16.819C3.75326 16.6204 3.55554 16.4165 3.3543 16.2152C3.19875 16.0597 3.16448 15.8883 3.32969 15.7275C3.49227 15.5702 3.67154 15.5948 3.81917 15.7574C3.95802 15.9103 4.08193 16.0755 4.2322 16.2592Z" fill="black"/>
</g>
<defs>
<clipPath id="clip0_2803_3080">
<rect width="30" height="32.2321" fill="white"/>
</clipPath>
</defs>
</svg>
