<svg width="16" height="16" viewBox="0 0 16 16" fill="none" xmlns="http://www.w3.org/2000/svg">
<g clip-path="url(#clip0_2850_12)">
<path d="M1.06707e-05 8.00358C-0.00712263 3.6059 3.5631 0.00714402 7.94294 1.07134e-05C12.4013 -0.00712259 15.9929 3.54883 16 7.97148C16.0071 12.4013 12.4369 15.9964 8.02854 16.0036C3.5845 16.0071 0.00714397 12.4441 1.06707e-05 8.00358ZM8.00001 15.2082C11.9804 15.1975 15.2046 11.9661 15.2046 7.98931C15.2046 4.03033 11.959 0.788241 8.01071 0.791807C4.00893 0.791807 0.777541 4.04816 0.795374 8.04638C0.813207 11.9875 4.06599 15.2189 8.00358 15.2046L8.00001 15.2082Z" fill="#5D5D5D"/>
<path d="M8.39589 5.29627C8.39589 6.07023 8.38876 6.84063 8.40303 7.61459C8.40303 7.74299 8.47079 7.89992 8.56353 7.99266C9.47659 8.91999 10.4004 9.83662 11.3205 10.7604C11.3883 10.8281 11.4632 10.8923 11.5131 10.9708C11.6237 11.1456 11.613 11.3203 11.4668 11.4701C11.3205 11.6199 11.1422 11.6306 10.9674 11.5201C10.8961 11.4737 10.8355 11.4059 10.7749 11.3453C9.79402 10.3645 8.81319 9.38008 7.8288 8.40282C7.6683 8.24589 7.59696 8.07826 7.60053 7.85356C7.60766 6.2236 7.6041 4.59007 7.60053 2.96011C7.60053 2.77821 7.6255 2.61415 7.80026 2.51071C8.07846 2.34665 8.39233 2.54638 8.39589 2.90661C8.39946 3.70554 8.39589 4.50447 8.39589 5.29984V5.29627Z" fill="#5D5D5D"/>
</g>
<defs>
<clipPath id="clip0_2850_12">
<rect width="16" height="16.0036" fill="white"/>
</clipPath>
</defs>
</svg>
