<svg width="30" height="30" viewBox="0 0 30 30" fill="none" xmlns="http://www.w3.org/2000/svg">
<g clip-path="url(#clip0_2803_3005)">
<path d="M30 16.9922C26.8865 16.9934 23.7723 16.9959 20.6588 16.9966C16.9011 16.9972 13.1428 16.9966 9.38512 16.9966H9.00402V10.6195C7.8607 10.5586 6.87058 10.1762 5.93696 9.58101C5.70717 9.43472 5.34113 9.5019 4.9977 9.46737V10.988H0V0H4.98075V0.932987C5.4598 1.02528 5.87983 0.992005 6.29233 0.799883C6.88565 0.523628 7.48776 0.265581 8.0861 0C10.4883 0 12.891 0 15.2932 0C15.3271 0.0156963 15.3604 0.0414382 15.3955 0.046461C16.4384 0.194634 17.308 0.671173 18.0432 1.41894C18.8293 2.21883 19.6317 3.00239 20.4171 3.80227C20.5596 3.9473 20.7034 4.00004 20.9031 3.99941C22.8921 3.99314 24.8811 3.9969 26.8708 3.99502C27.9137 3.99439 28.9571 3.98811 30 3.98497V16.9928V16.9922ZM12.3787 5.48805C12.4371 5.56465 12.4936 5.65883 12.569 5.7348C13.4505 6.62069 14.3357 7.5022 15.2172 8.3881C15.5092 8.6813 15.8495 8.81127 16.2538 8.69825C17.0141 8.48604 17.2345 7.5788 16.6582 6.99489C15.5745 5.89741 14.4814 4.80934 13.387 3.72253C13.3142 3.6497 13.1999 3.61831 13.1277 3.57938C13.4266 3.2642 13.6407 3.03817 13.8824 2.78327C14.2309 3.13612 14.5643 3.49085 14.9196 3.82236C15.0201 3.91591 15.1852 3.98686 15.3215 3.98811C16.5125 4.00067 17.7035 3.99565 18.8939 3.99439C18.9743 3.99439 19.054 3.98183 19.1834 3.97053C18.543 3.33138 17.9365 2.73869 17.3438 2.13156C16.586 1.3549 15.6718 0.988866 14.5881 0.995145C12.6945 1.00645 10.8003 1.00959 8.9067 0.99075C8.36173 0.985099 7.872 1.09309 7.39546 1.35428C6.89318 1.6299 6.39027 1.9275 5.79758 1.96957C5.54016 1.98778 5.2796 1.97271 5.01339 1.97271V8.48227C5.08811 8.48855 5.14713 8.50362 5.20238 8.49609C5.83148 8.41195 6.39153 8.55762 6.88439 8.96949C7.00871 9.07308 7.17069 9.13587 7.32075 9.2043C7.84626 9.44414 8.39312 9.59357 9.00339 9.60362C9.00339 8.82759 9.00904 8.07731 8.9946 7.32765C8.99334 7.25608 8.88033 7.16944 8.80059 7.11921C8.43456 6.88816 8.06161 6.66715 7.66356 6.42543C7.8067 6.24649 7.90214 6.12595 7.99883 6.00603C8.1018 5.8792 8.20539 5.753 8.3071 5.62932C9.96965 6.74061 10.5793 6.72178 12.3793 5.48742L12.3787 5.48805ZM16.1747 5.00837C16.1603 5.03035 16.1458 5.05232 16.1314 5.07492C16.3693 5.30409 16.6186 5.52321 16.8415 5.76619C16.9997 5.93822 17.1667 6.00289 17.4022 6.00226C19.9801 5.9941 22.5574 5.99724 25.1354 5.99724C25.2484 5.99724 25.3614 5.99724 25.5046 5.99724C25.4493 6.74626 25.568 7.40174 26.0985 7.92537C26.6253 8.44523 27.2845 8.54945 27.9808 8.49295V12.4999C27.255 12.4572 26.5964 12.569 26.0728 13.1001C25.5529 13.6269 25.4581 14.2899 25.4945 14.9805H13.5032C13.5679 13.2458 12.6977 12.4453 11.02 12.4798V8.49546C11.8438 8.55573 12.5721 8.38998 13.0581 7.73513C12.7579 7.42811 12.4873 7.15123 12.2048 6.86242C11.5562 7.27743 10.8154 7.44192 10.0268 7.42246V15.9794H28.9823V5.00774H16.176L16.1747 5.00837ZM17.8988 7.01373C17.9302 7.31196 17.9886 7.57314 17.9766 7.83056C17.9647 8.09049 17.8837 8.34729 17.8304 8.61789C19.1959 7.75397 20.4529 7.82491 21.3721 8.80562C22.1989 9.68712 22.2762 11.0634 21.5535 12.0378C20.8271 13.0172 19.5055 13.3368 18.4099 12.7981C17.1504 12.1784 16.7844 11.054 17.2722 9.30099C17.2546 9.30476 17.2345 9.30413 17.2207 9.31292C16.1948 9.96589 15.2825 9.86983 14.4274 9.00653C14.2303 8.8075 14.0582 8.58336 13.8604 8.35356C13.3249 8.98016 12.7234 9.31732 12.0158 9.46298V11.5324C12.1012 11.5569 12.1759 11.5782 12.2506 11.5996C13.3531 11.9147 14.0714 12.6261 14.3878 13.7229C14.4519 13.9446 14.5297 14.0086 14.7558 14.008C17.9189 13.9998 21.0826 14.0023 24.2457 14.0023H24.5283C24.8441 12.6481 25.6728 11.8375 26.9863 11.5292V9.46674C25.6452 9.15533 24.8378 8.32217 24.5264 7.0131H17.8982L17.8988 7.01373ZM3.98372 1.02089H1.02026V9.9797H3.98372V1.02089ZM19.5023 9.00653C18.6648 9.00653 17.9892 9.6821 17.9974 10.5121C18.0055 11.3264 18.6836 12.0008 19.4967 12.0033C20.3273 12.0058 20.9985 11.3271 20.9935 10.4889C20.9884 9.66012 20.3317 9.00716 19.5023 9.00653Z" fill="black"/>
<path d="M30 30.0003H25.0142V29.2501C24.6563 29.3882 24.3455 29.4905 24.0492 29.6255C23.4245 29.9099 22.7771 30.0142 22.089 30.0079C20.0002 29.9872 17.9113 29.9916 15.8224 30.0054C15.1864 30.0098 14.6207 29.8515 14.0758 29.5232C11.1267 27.747 8.16956 25.9859 5.21677 24.2166C4.28692 23.6597 3.92716 22.6526 4.30953 21.7039C4.75969 20.5882 6.04679 20.1274 7.13862 20.71C8.77292 21.5821 10.3991 22.4686 12.029 23.3495C12.088 23.3815 12.1489 23.4104 12.2318 23.4525C12.5564 22.6061 13.2439 22.2753 14.0613 22.0681C15.7804 21.6323 17.4844 21.1395 19.2022 20.7C19.6693 20.5807 20.1621 20.5393 20.6456 20.511C21.1906 20.4796 21.7387 20.5154 22.2849 20.5003C22.8607 20.4846 23.3818 20.6328 23.8677 20.9354C24.2218 21.1564 24.5828 21.3661 24.9935 21.6129V19.9805H30.0006V29.9997L30 30.0003ZM20.1176 24.56C20.0749 24.5902 20.0604 24.6065 20.0435 24.6109C18.2265 25.0962 16.4164 25.6117 14.5887 26.0549C13.4523 26.3306 12.6016 25.795 12.1828 24.6799C12.1526 24.5996 12.076 24.5186 11.9995 24.4771C10.2258 23.5134 8.45209 22.5496 6.66899 21.6041C6.47561 21.5018 6.21694 21.4578 5.99845 21.4798C5.56586 21.5231 5.25695 21.8565 5.17408 22.2784C5.09183 22.6966 5.28458 23.0934 5.71654 23.352C8.72018 25.1515 11.7226 26.954 14.7369 28.7359C15.0081 28.896 15.3603 28.9883 15.6761 28.9914C17.9609 29.0127 20.2457 29.0052 22.5304 28.9983C22.7313 28.9983 22.9429 28.9669 23.1306 28.8991C23.6988 28.6938 24.2601 28.4703 24.8177 28.2367C24.8993 28.2022 24.9966 28.0779 24.9972 27.995C25.0079 26.3155 25.0073 24.6366 24.9991 22.9571C24.9991 22.8711 24.9301 22.7505 24.8566 22.7053C24.3016 22.3607 23.7415 22.0229 23.174 21.6995C23.0164 21.6097 22.828 21.525 22.6535 21.5231C21.7757 21.5137 20.8798 21.4226 20.0246 21.5677C18.8185 21.7717 17.6426 22.1547 16.4553 22.4661C15.5977 22.6909 14.7407 22.9201 13.8855 23.1549C13.3876 23.2911 13.1001 23.6917 13.1202 24.1965C13.1377 24.6441 13.4611 25.0334 13.9282 25.1025C14.1316 25.1326 14.3558 25.0912 14.5592 25.0378C16.0215 24.658 17.48 24.2662 18.9403 23.8788C19.2455 23.7978 19.5519 23.7193 19.8721 23.6358C19.9606 23.968 20.0378 24.258 20.1182 24.56H20.1176ZM26.0144 28.9845H28.9803V21.0227H26.0144V28.9845Z" fill="black"/>
</g>
<defs>
<clipPath id="clip0_2803_3005">
<rect width="30" height="30.0075" fill="white"/>
</clipPath>
</defs>
</svg>
