<svg width="30" height="31" viewBox="0 0 30 31" fill="none" xmlns="http://www.w3.org/2000/svg">
<g clip-path="url(#clip0_2803_3010)">
<path d="M1.00613 12.6678C1.50673 12.3874 1.99314 12.1688 2.42032 11.866C3.40566 11.1651 4.47611 10.9933 5.67504 11.0008C12.8595 11.0441 20.0439 11.0225 27.2283 11.0216C28.4147 11.0216 28.9987 10.4418 28.9987 9.26285C28.9987 7.07274 28.9987 4.88262 28.9987 2.69167C28.9987 1.61706 28.388 1.00716 27.3117 1.00716C22.6787 1.00716 18.0448 1.00716 13.4118 1.00716C13.3075 1.00716 13.2015 1.01634 13.0997 0.999652C12.8277 0.956266 12.6734 0.788566 12.6575 0.514072C12.6425 0.256264 12.8428 0.0418409 13.1148 0.0109707C13.1974 0.00179312 13.2808 0.00596477 13.3642 0.00596477C18.0081 0.00596477 22.652 0.00596477 27.2959 0.00596477C28.9387 0.00596477 29.9966 1.06139 29.9974 2.69918C29.9983 4.90014 29.9974 7.10027 29.9974 9.30123C29.9974 10.9649 28.947 12.022 27.2917 12.022C19.7118 12.022 12.1319 12.0211 4.5512 12.0295C4.33594 12.0295 4.09899 12.0937 3.90876 12.1964C2.90339 12.742 1.91054 13.3119 0.911015 13.8692C0.346173 14.1837 0.006601 13.9818 0.006601 13.3352C0.006601 9.76846 0.00493234 6.20086 0.006601 2.6341C0.00826966 1.09477 1.08456 0.0101364 2.61555 0.0067991C4.68719 0.00262745 6.75967 0.00596477 8.83131 0.00596477C8.90389 0.00596477 8.97815 0.000124456 9.0499 0.0109707C9.32106 0.0543559 9.47958 0.215382 9.49877 0.49071C9.51713 0.747684 9.31939 0.973787 9.04907 0.998817C8.853 1.01717 8.6536 1.00633 8.45586 1.00633C6.52939 1.00633 4.60376 1.00633 2.67729 1.00633C1.6252 1.00633 1.00696 1.62456 1.00696 2.67582C1.00696 5.88799 1.00696 9.101 1.00696 12.3132C1.00696 12.4141 1.00696 12.5151 1.00696 12.6678H1.00613Z" fill="black"/>
<path d="M12.6594 16.0281C16.0226 16.0281 19.3858 16.0281 22.749 16.0281C22.8533 16.0281 22.9592 16.0181 23.061 16.0356C23.3305 16.084 23.4932 16.2508 23.4932 16.527C23.4932 16.804 23.3305 16.9709 23.0619 17.0193C22.9509 17.0393 22.8333 17.0276 22.719 17.0276C16.0652 17.0276 9.41223 17.0276 2.75844 17.0276C1.59455 17.0276 1.00635 17.6125 1.00635 18.7722C1.00635 20.9732 1.00635 23.1741 1.00635 25.3742C1.00635 26.423 1.62626 27.0404 2.68002 27.0412C4.22102 27.0421 5.76203 27.0412 7.30304 27.0412C7.40733 27.0412 7.51496 27.0304 7.61424 27.0554C7.84953 27.1138 7.99637 27.2665 8.00638 27.5185C8.01639 27.7846 7.87539 27.9473 7.62926 28.0257C7.59005 28.0383 7.5475 28.0408 7.50578 28.0408C5.77705 28.0391 4.04748 28.0766 2.32126 28.0224C1.0439 27.9824 0.022677 26.8677 0.0134993 25.5853C-0.00235295 23.2175 -0.0040216 20.8497 0.0134993 18.4827C0.0235113 17.1002 1.15069 16.0306 2.56989 16.0281C5.93307 16.0222 9.29625 16.0264 12.6594 16.0256V16.0281Z" fill="black"/>
<path d="M28.9982 28.6828V28.3441C28.9982 25.1211 28.9965 21.8972 29.0007 18.6742C29.0007 18.2962 28.9181 17.9567 28.7045 17.643C28.511 17.3585 28.5585 17.0648 28.8005 16.9029C29.0416 16.741 29.3278 16.8103 29.5297 17.0881C29.82 17.4861 29.9911 17.935 29.9919 18.4264C29.9986 22.1083 29.9986 25.791 29.9952 29.4729C29.9952 29.9677 29.6206 30.1838 29.1851 29.9427C28.1388 29.362 27.1009 28.7654 26.053 28.1889C25.8978 28.1038 25.7034 28.0521 25.5266 28.0521C20.9653 28.0445 16.4048 28.0462 11.8435 28.0462C11.7601 28.0462 11.6767 28.0479 11.5932 28.0462C11.2261 28.0387 11.0034 27.846 11.0059 27.5414C11.0084 27.2369 11.2295 27.0459 11.6008 27.0459C16.3389 27.0442 21.0771 27.0434 25.8152 27.0517C25.9913 27.0517 26.1832 27.1193 26.3409 27.2052C27.1268 27.6324 27.9036 28.0771 28.6845 28.5151C28.7729 28.5643 28.863 28.6111 28.9982 28.6836V28.6828Z" fill="black"/>
<path d="M29.9999 14.5216C29.9874 14.963 29.8631 15.3134 29.587 15.5904C27.2358 17.9515 24.8813 20.3102 22.5218 22.6638C22.4259 22.7589 22.2774 22.824 22.1431 22.8541C21.6058 22.9742 21.0651 23.0802 20.5236 23.1803C20.0873 23.2612 19.8086 22.9875 19.8887 22.552C19.988 22.0097 20.0931 21.4674 20.2183 20.9309C20.2541 20.7782 20.3426 20.6172 20.4527 20.5054C22.7646 18.1785 25.0824 15.8565 27.4027 13.5379C27.8874 13.054 28.5157 12.9297 29.0939 13.1908C29.6846 13.457 29.9649 13.9351 29.9999 14.5216ZM27.8282 16.0326C27.532 15.7556 27.3001 15.5378 27.0206 15.2767C26.9772 15.3359 26.9246 15.4302 26.852 15.5036C25.0949 17.2674 23.3462 19.0395 21.5674 20.7807C21.1978 21.142 21.0826 21.5458 21.0292 22.0531C21.4581 21.9605 21.8536 21.9513 22.194 21.6026C23.9569 19.8004 25.7465 18.0258 27.5295 16.2437C27.6096 16.1636 27.7156 16.1102 27.8274 16.0317L27.8282 16.0326ZM28.5065 15.2491C28.7334 15.0122 29.0763 14.8462 28.9779 14.4615C28.9395 14.313 28.7643 14.137 28.6158 14.0919C28.2136 13.9701 28.0501 14.3397 27.8015 14.5616C28.0351 14.7886 28.257 15.0055 28.5065 15.2491Z" fill="black"/>
<path d="M4.15598 8.94045C4.24359 8.41232 4.32619 7.86583 4.42714 7.32352C4.46635 7.11076 4.43298 6.95475 4.26778 6.79706C3.90568 6.45248 3.54942 6.09956 3.22654 5.7191C3.10806 5.57894 3.02797 5.34783 3.04215 5.16761C3.06134 4.92899 3.28411 4.83054 3.52022 4.79633C4.00413 4.72708 4.48471 4.63614 4.97029 4.58024C5.17553 4.55605 5.27982 4.46761 5.35992 4.28656C5.566 3.82017 5.79294 3.36296 6.00402 2.89907C6.10665 2.67296 6.24932 2.5086 6.51547 2.51277C6.7666 2.51694 6.90427 2.6763 7.00272 2.88906C7.22048 3.36129 7.45075 3.82851 7.661 4.30408C7.73776 4.47762 7.84038 4.55354 8.02978 4.57774C8.52453 4.63948 9.02179 4.70205 9.50654 4.81469C9.68092 4.85557 9.90785 5.01159 9.95541 5.16427C10.0038 5.31779 9.90785 5.57309 9.79021 5.71243C9.46816 6.09372 9.11357 6.44914 8.74813 6.78955C8.56792 6.95725 8.54623 7.12411 8.58627 7.34438C8.67805 7.84581 8.74647 8.35225 8.83657 8.85451C8.87996 9.0948 8.84408 9.33092 8.62465 9.41936C8.45862 9.4861 8.21249 9.47943 8.04897 9.4035C7.58842 9.18908 7.15707 8.91125 6.70236 8.68181C6.59723 8.62924 6.42035 8.62674 6.31606 8.6793C5.843 8.91792 5.38829 9.19242 4.91773 9.43771C4.52392 9.64296 4.12511 9.38348 4.15598 8.93962V8.94045ZM6.50462 4.20062C6.34777 4.52851 6.20593 4.79133 6.09413 5.06666C5.97733 5.35283 5.77208 5.47965 5.47673 5.51302C5.18388 5.54556 4.89353 5.6023 4.60235 5.64818C4.58149 5.68072 4.56147 5.71326 4.54061 5.7458C4.78006 5.95939 5.01951 6.17381 5.25897 6.3874C5.47339 6.57846 5.53847 6.80457 5.47422 7.09074C5.40497 7.39861 5.37244 7.71482 5.3157 8.07525C5.61856 7.91005 5.87887 7.78157 6.12584 7.62888C6.38615 7.46786 6.62643 7.4712 6.88591 7.62888C7.13537 7.7799 7.39735 7.91089 7.69438 8.07191C7.63764 7.71148 7.61011 7.40945 7.53919 7.11827C7.46243 6.80707 7.54753 6.57429 7.7728 6.3607C8.00058 6.14544 8.21166 5.91183 8.46029 5.65486C8.10403 5.59979 7.81786 5.54556 7.52834 5.51386C7.23132 5.48132 7.02858 5.35033 6.91261 5.06499C6.80081 4.79049 6.66064 4.52768 6.50462 4.20146V4.20062Z" fill="black"/>
<path d="M18.512 5.36369C18.4544 5.45714 18.3893 5.61232 18.2825 5.7283C17.9505 6.08789 17.6142 6.44498 17.2563 6.77788C17.0694 6.95226 17.041 7.12496 17.0861 7.35941C17.182 7.86001 17.2772 8.36394 17.3214 8.87122C17.3372 9.04893 17.248 9.2767 17.1286 9.41436C16.9785 9.5879 16.7507 9.53451 16.553 9.42354C16.0999 9.16907 15.6485 8.90959 15.1855 8.67265C15.0879 8.62259 14.9227 8.62175 14.8259 8.67098C14.3804 8.89625 13.9465 9.14404 13.5127 9.38933C13.3016 9.50864 13.0913 9.58373 12.8711 9.42771C12.6566 9.27587 12.6283 9.06478 12.675 8.81698C12.7676 8.31555 12.8368 7.80911 12.9261 7.30685C12.962 7.10744 12.9336 6.95726 12.7759 6.80708C12.4147 6.4625 12.0759 6.09373 11.7247 5.73747C11.562 5.57227 11.4494 5.39039 11.5303 5.15094C11.6104 4.91482 11.7998 4.82555 12.0326 4.79218C12.5056 4.72376 12.9762 4.63365 13.4517 4.58109C13.6687 4.5569 13.7796 4.46178 13.8639 4.27072C14.0692 3.80433 14.2944 3.34628 14.5063 2.8824C14.6048 2.66797 14.7458 2.51362 14.9961 2.51028C15.2472 2.50778 15.3932 2.6588 15.4925 2.87322C15.7111 3.34545 15.9397 3.81267 16.1491 4.28908C16.2301 4.47263 16.3385 4.55356 16.5413 4.57775C17.0469 4.63866 17.5483 4.7296 18.0514 4.8097C18.3251 4.85308 18.4669 5.02245 18.5111 5.36202L18.512 5.36369ZM15.0036 4.1948C14.8476 4.52352 14.7116 4.77883 14.604 5.04581C14.4847 5.34033 14.2802 5.483 13.9682 5.51471C13.677 5.54391 13.3883 5.60315 13.0988 5.64987C13.0805 5.68324 13.0621 5.71578 13.0438 5.74915C13.2907 5.97109 13.5377 6.19302 13.7838 6.41578C13.9799 6.59349 14.0299 6.80792 13.9765 7.06739C13.9115 7.38361 13.8723 7.70566 13.8138 8.0761C14.0967 7.92091 14.3345 7.81328 14.5481 7.66895C14.8668 7.45285 15.1588 7.46787 15.4733 7.67646C15.6878 7.81829 15.9255 7.92675 16.1934 8.07193C16.1333 7.70149 16.0882 7.37276 16.024 7.0482C15.9748 6.80041 16.034 6.601 16.2125 6.42329C16.4537 6.18384 16.6856 5.93437 16.9543 5.65571C16.6189 5.60231 16.336 5.54224 16.0507 5.51721C15.7236 5.48801 15.515 5.33449 15.3924 5.0308C15.2873 4.77132 15.1571 4.52269 15.0044 4.19563L15.0036 4.1948Z" fill="black"/>
<path d="M21.1518 8.93896C21.2394 8.40999 21.322 7.86434 21.4229 7.32203C21.463 7.10844 21.4271 6.95325 21.2619 6.7964C20.8998 6.45182 20.5436 6.0989 20.2207 5.71844C20.1022 5.57911 20.0229 5.34717 20.038 5.16695C20.058 4.92833 20.2816 4.83072 20.5169 4.79734C21.0008 4.7281 21.4813 4.63715 21.9669 4.58125C22.173 4.55789 22.2756 4.46612 22.3549 4.2859C22.561 3.81951 22.7879 3.3623 22.999 2.89841C23.1016 2.67231 23.2451 2.50878 23.5113 2.51378C23.7624 2.51879 23.8992 2.67815 23.9977 2.89174C24.2154 3.3648 24.4457 3.83119 24.656 4.30676C24.7327 4.48113 24.837 4.55539 25.0256 4.57875C25.5103 4.63799 25.9917 4.72559 26.4748 4.79568C26.7084 4.82905 26.8953 4.92249 26.9721 5.15944C27.0505 5.40057 26.932 5.58078 26.771 5.74514C26.4356 6.08722 26.111 6.44097 25.7631 6.7697C25.5837 6.93907 25.5312 7.10677 25.5787 7.34706C25.6772 7.84765 25.7698 8.35159 25.8165 8.85803C25.8332 9.03741 25.754 9.26852 25.6371 9.40618C25.4778 9.59307 25.2442 9.53383 25.0364 9.41536C24.5934 9.16423 24.1504 8.91059 23.6957 8.68115C23.5905 8.62859 23.4145 8.62775 23.3094 8.68115C22.8363 8.91977 22.3816 9.1951 21.911 9.43956C21.5172 9.6448 21.1192 9.38366 21.151 8.93979L21.1518 8.93896ZM23.4996 4.19579C23.3419 4.52869 23.2042 4.78566 23.0966 5.05432C22.9765 5.35217 22.7645 5.48483 22.455 5.5157C22.1688 5.54407 21.8852 5.60164 21.5489 5.65504C21.8084 5.92452 22.032 6.16731 22.2673 6.39759C22.4642 6.59032 22.5309 6.80307 22.4717 7.07673C22.4041 7.38961 22.3666 7.70916 22.3082 8.07626C22.6127 7.91023 22.8805 7.77674 23.1358 7.62155C23.387 7.46803 23.6189 7.47387 23.8684 7.62155C24.1237 7.7734 24.389 7.90773 24.6885 8.07125C24.6318 7.71333 24.6009 7.40296 24.53 7.10093C24.4599 6.8014 24.5417 6.57614 24.7578 6.37089C24.988 6.15146 25.2025 5.91535 25.4544 5.65504C25.0998 5.6008 24.8045 5.54741 24.5066 5.51153C24.223 5.47732 24.0269 5.35051 23.9143 5.07768C23.8008 4.80152 23.6606 4.5362 23.4996 4.19663V4.19579Z" fill="black"/>
<path d="M18.7656 25.5414C16.205 25.5414 13.6453 25.5414 11.0848 25.5414C10.9913 25.5414 10.8962 25.5472 10.8044 25.5364C10.5316 25.5047 10.3389 25.2919 10.3522 25.0299C10.3672 24.7529 10.5233 24.5919 10.7944 24.546C10.8653 24.5343 10.9396 24.5402 11.0122 24.5402C16.1642 24.5402 21.3161 24.5402 26.4681 24.5402C26.5516 24.5402 26.6375 24.5318 26.7176 24.5485C26.9696 24.6019 27.1264 24.7521 27.1356 25.0199C27.1448 25.3019 26.9921 25.4696 26.7268 25.5305C26.6275 25.553 26.5199 25.5414 26.4156 25.5414C23.8659 25.5414 21.3153 25.5414 18.7656 25.5414Z" fill="black"/>
<path d="M11.0263 22.5379C13.4317 22.5379 15.8371 22.5379 18.2424 22.5379C18.3467 22.5379 18.4527 22.5279 18.5545 22.5446C18.8248 22.5897 18.9892 22.754 18.9942 23.0302C18.9992 23.3072 18.8373 23.4741 18.5703 23.53C18.4902 23.5467 18.4043 23.5383 18.3209 23.5383C13.4475 23.5383 8.57423 23.5383 3.7009 23.5383C3.60746 23.5383 3.51068 23.5475 3.42057 23.5266C3.1686 23.4691 3.01342 23.308 3.01175 23.0452C3.00924 22.7682 3.16777 22.5989 3.43642 22.5463C3.53738 22.5263 3.64417 22.5371 3.74763 22.5371C6.17386 22.5371 8.60009 22.5371 11.0263 22.5371V22.5379Z" fill="black"/>
<path d="M13.8074 18.5321C15.7948 18.5321 17.783 18.5321 19.7704 18.5321C19.8638 18.5321 19.9598 18.5229 20.0507 18.5379C20.321 18.5821 20.4787 18.7448 20.4954 19.021C20.5113 19.2788 20.3135 19.4949 20.0424 19.5283C19.9606 19.5383 19.8763 19.5333 19.7929 19.5333C15.7965 19.5333 11.8009 19.5333 7.80443 19.5333C7.70097 19.5333 7.59251 19.5433 7.49322 19.5191C7.24125 19.459 7.09274 19.288 7.09525 19.0285C7.09775 18.769 7.24709 18.6005 7.50156 18.5446C7.60168 18.5229 7.70848 18.5329 7.81277 18.5329C9.81099 18.5329 11.8092 18.5329 13.8066 18.5329L13.8074 18.5321Z" fill="black"/>
<path d="M8.09279 20.5346C9.57039 20.5346 11.0472 20.5346 12.5248 20.5346C12.8869 20.5346 13.0888 20.6731 13.1338 20.9409C13.183 21.2329 13.0053 21.4841 12.7108 21.5275C12.619 21.5408 12.5239 21.535 12.4305 21.535C9.52784 21.535 6.6252 21.535 3.72257 21.535C3.62913 21.535 3.53318 21.5441 3.44224 21.5266C3.17442 21.4757 3.01089 21.3105 3.01172 21.0335C3.01172 20.7565 3.17442 20.5913 3.44307 20.5413C3.53401 20.5246 3.62996 20.5338 3.72341 20.5338C5.18015 20.5338 6.63605 20.5338 8.09279 20.5338V20.5346Z" fill="black"/>
<path d="M6.28604 24.5403C7.1504 24.5403 8.01477 24.5386 8.8783 24.5403C9.27211 24.5411 9.50071 24.728 9.50071 25.0409C9.50071 25.3521 9.27044 25.5398 8.87747 25.5407C7.12871 25.5423 5.37912 25.5423 3.63037 25.5407C3.23656 25.5407 3.00796 25.3521 3.00879 25.0401C3.00879 24.728 3.23656 24.542 3.63204 24.5411C4.51726 24.5395 5.40165 24.5411 6.28687 24.5411L6.28604 24.5403Z" fill="black"/>
<path d="M16.3456 20.5343C17.0314 20.5343 17.7164 20.5318 18.4022 20.5352C18.7701 20.5368 18.9937 20.7262 18.9979 21.0282C19.0021 21.3311 18.7776 21.533 18.4147 21.5338C17.0231 21.5372 15.6306 21.5363 14.2389 21.5338C13.876 21.5338 13.6449 21.3369 13.6407 21.0399C13.6365 20.7329 13.8726 20.5351 14.2581 20.5343C14.9539 20.5318 15.6497 20.5343 16.3456 20.5343Z" fill="black"/>
<path d="M4.29744 18.5322C4.53689 18.5322 4.77634 18.5247 5.01496 18.5339C5.33034 18.5464 5.53392 18.7558 5.52641 19.0445C5.51973 19.319 5.32116 19.5225 5.01997 19.5284C4.52104 19.5384 4.02128 19.5384 3.52235 19.5284C3.20864 19.5217 2.99922 19.3014 3.00756 19.0186C3.01507 18.7466 3.21698 18.5464 3.51734 18.5347C3.77682 18.5247 4.03713 18.5322 4.29744 18.5322Z" fill="black"/>
<path d="M9.4822 28.042C9.33702 28.042 9.19101 28.0528 9.04668 28.0395C8.77635 28.0144 8.57945 27.8 8.57862 27.5464C8.57778 27.2927 8.77385 27.0666 9.04334 27.0516C9.35371 27.0349 9.66575 27.0333 9.97612 27.0524C10.2431 27.0691 10.4475 27.3061 10.4267 27.5572C10.4041 27.8275 10.2514 28.0019 9.97946 28.0361C9.81593 28.057 9.64823 28.0403 9.4822 28.0403C9.4822 28.0403 9.4822 28.0411 9.4822 28.042Z" fill="black"/>
<path d="M11.2284 1.0037C11.145 1.0037 11.0616 1.01037 10.979 1.00203C10.7011 0.973663 10.5101 0.77259 10.5059 0.512279C10.5026 0.251968 10.6911 0.0350419 10.9656 0.0116806C11.1517 -0.00417165 11.3411 -0.00333732 11.5271 0.0108463C11.805 0.0317045 11.9969 0.238618 12.0002 0.498929C12.0044 0.758406 11.8141 0.97116 11.5405 1.0012C11.4379 1.01288 11.3327 1.00286 11.2284 1.0037Z" fill="black"/>
</g>
<defs>
<clipPath id="clip0_2803_3010">
<rect width="30" height="30.0409" fill="white"/>
</clipPath>
</defs>
</svg>
