<svg width="30" height="31" viewBox="0 0 30 31" fill="none" xmlns="http://www.w3.org/2000/svg">
<g clip-path="url(#clip0_2803_3048)">
<path d="M16.6852 23.0796C16.9639 22.9391 17.1686 22.8478 17.3609 22.7369C18.9145 21.8376 20.4639 20.9326 22.0175 20.0342C22.6701 19.6569 23.3524 19.3495 24.1168 19.2911C24.8837 19.2319 25.5569 19.4407 25.9877 20.1155C26.4274 20.8044 26.4208 21.54 26.0164 22.242C25.8792 22.4796 25.6564 22.6999 25.4213 22.8454C22.5805 24.6077 19.7299 26.3544 16.8809 28.1044C15.9167 28.6962 14.8908 28.8097 13.8034 28.5129C12.0328 28.0304 10.254 27.58 8.49087 27.0728C7.97056 26.9232 7.55545 26.9627 7.15104 27.3687C7.24803 27.5438 7.36229 27.7444 7.47079 27.9474C7.81684 28.5935 7.64505 29.2429 7.01787 29.6169C6.58633 29.8742 6.14904 30.1224 5.70516 30.3575C5.09196 30.6822 4.42451 30.503 4.08174 29.9021C2.77068 27.6071 1.46618 25.3088 0.169092 23.0065C-0.176142 22.3941 0.0219567 21.7192 0.629404 21.3609C1.05355 21.111 1.48262 20.8693 1.91499 20.635C2.54956 20.2914 3.21537 20.4797 3.58691 21.0986C3.68144 21.2556 3.77103 21.4151 3.87214 21.5894C4.99579 20.9408 6.09972 20.2898 7.21762 19.6643C7.66313 19.4152 8.12673 19.1883 8.60348 19.0075C9.31697 18.7363 10.0428 18.7584 10.7735 19.0009C12.1446 19.4547 13.5231 19.8862 14.9007 20.3202C15.0955 20.3819 15.3043 20.3967 15.5008 20.4526C16.488 20.7345 17.0568 21.762 16.7798 22.7517C16.7584 22.8281 16.7362 22.9045 16.6852 23.0813V23.0796ZM6.63565 26.4728C6.88636 26.3298 7.11651 26.2163 7.32858 26.0741C7.57765 25.9056 7.82342 25.8826 8.11358 25.9623C10.0124 26.4802 11.9218 26.9619 13.8132 27.5052C14.8432 27.8011 15.7465 27.6704 16.6557 27.1C19.3485 25.41 22.0668 23.7602 24.7752 22.0949C25.2643 21.794 25.4353 21.351 25.2561 20.8405C25.1057 20.4123 24.7045 20.2093 24.1513 20.2742C23.5143 20.349 22.9554 20.6268 22.412 20.9416C20.8675 21.836 19.3246 22.7327 17.7834 23.632C17.0592 24.0545 16.2849 24.26 15.4523 24.1194C14.756 24.0011 14.0656 23.8457 13.3776 23.6821C12.7594 23.535 12.1487 23.3583 11.5363 23.1857C11.2125 23.0944 11.053 22.8429 11.1253 22.5692C11.201 22.2823 11.4697 22.1541 11.815 22.2428C11.8947 22.2634 11.9728 22.2889 12.0517 22.3094C12.9641 22.5486 13.8724 22.8043 14.7906 23.0188C15.3397 23.147 15.7605 22.8733 15.8526 22.3982C15.9455 21.919 15.638 21.494 15.1062 21.3707C14.9163 21.3263 14.7207 21.3041 14.5358 21.2458C13.1885 20.8167 11.8413 20.3884 10.499 19.9438C9.94907 19.7613 9.40821 19.7448 8.87227 19.9503C8.53855 20.0786 8.21058 20.2314 7.89986 20.4073C6.78443 21.0395 5.67722 21.6855 4.56754 22.3275C4.50013 22.367 4.43931 22.4179 4.36451 22.4714C5.12238 23.8071 5.86874 25.1247 6.63483 26.4744L6.63565 26.4728ZM5.08621 29.5536C5.17827 29.5141 5.21773 29.5018 5.25307 29.4821C5.67311 29.247 6.09396 29.0119 6.51318 28.7727C6.70799 28.6617 6.6636 28.5179 6.57236 28.3559C5.30732 26.1292 4.04393 23.9016 2.78547 21.6716C2.66382 21.4554 2.5323 21.4052 2.3153 21.5343C1.96266 21.7439 1.60757 21.9502 1.24343 22.1384C0.996831 22.2659 0.9508 22.4064 1.09383 22.6505C1.52372 23.3846 1.93718 24.1268 2.3564 24.8666C3.18989 26.3372 4.02256 27.8077 4.86016 29.2758C4.92017 29.381 5.01552 29.4665 5.08785 29.5528L5.08621 29.5536Z" fill="black"/>
<path d="M28.759 14.4626C28.9612 14.4717 29.1363 14.4667 29.3081 14.4889C29.8991 14.567 30.204 15.1884 29.8489 15.6611C29.165 16.571 28.4557 17.4612 27.7356 18.3432C27.4454 18.6991 26.9153 18.6991 26.6243 18.3432C25.9042 17.462 25.1948 16.571 24.5093 15.6619C24.1616 15.2016 24.4485 14.5884 25.0189 14.4939C25.148 14.4725 25.2812 14.4684 25.4932 14.4495C25.462 13.7475 25.4834 13.0488 25.3913 12.3657C24.8044 7.99852 21.7499 4.59797 17.4854 3.545C17.0292 3.43239 16.5582 3.37321 16.0905 3.31567C15.5875 3.25402 15.4436 3.11511 15.442 2.61123C15.4403 1.95528 15.4395 1.29934 15.442 0.643396C15.4445 0.153493 15.6434 -0.0306319 16.1226 0.0047135C22.2842 0.460093 27.4767 5.0928 28.5321 11.1278C28.7039 12.1101 28.6875 13.1252 28.7557 14.1248C28.7623 14.2259 28.7565 14.327 28.7565 14.4618L28.759 14.4626ZM16.4292 1.03137C16.4292 1.41771 16.4423 1.76458 16.4243 2.11064C16.4136 2.32025 16.5081 2.36874 16.6881 2.3934C21.1942 3.01729 24.9203 6.31345 26.0809 10.702C26.4434 12.0739 26.5487 13.4664 26.3966 14.8777C26.3514 15.2994 26.2149 15.4317 25.7957 15.4605C25.7497 15.4638 25.7045 15.4769 25.6182 15.4926C26.15 16.1666 26.6563 16.8086 27.1808 17.4735C27.7027 16.8118 28.2124 16.1658 28.7573 15.4753C28.5995 15.4679 28.5107 15.4605 28.422 15.4597C27.8375 15.4539 27.7266 15.2928 27.7348 14.7166C27.7471 13.8067 27.8079 12.8786 27.6674 11.9876C26.8717 6.95131 24.0564 3.51048 19.2955 1.66923C18.3954 1.32153 17.4501 1.12344 16.4308 1.03055L16.4292 1.03137Z" fill="black"/>
<path d="M13.6238 11.912C11.6659 10.3576 11.8344 7.90151 13.1389 6.55181C14.5223 5.11992 16.8008 5.08621 18.2253 6.48112C19.584 7.81274 19.806 10.3116 17.8332 11.9005C18.1941 12.0714 18.5615 12.2186 18.9018 12.4126C20.8417 13.5198 21.9464 15.1925 22.2465 17.3979C22.2917 17.7275 22.0993 17.9511 21.7664 17.9782C21.6744 17.9856 21.5815 17.9823 21.4894 17.9823C17.659 17.9823 13.8293 17.9823 9.99887 17.9823C9.24593 17.9823 9.09387 17.8138 9.2336 17.0823C9.70707 14.6114 11.111 12.9066 13.4635 11.9876C13.5104 11.9695 13.5556 11.9449 13.6255 11.912H13.6238ZM10.2693 16.9762H21.154C20.8746 15.172 19.0909 12.6789 15.8424 12.5687C13.2145 12.4792 10.6885 14.4626 10.2693 16.9762ZM15.7117 11.5791C17.1427 11.5807 18.2968 10.4316 18.2943 9.00626C18.2919 7.57765 17.1403 6.43591 15.7059 6.44002C14.2855 6.44496 13.1463 7.58012 13.1413 8.9964C13.1364 10.4283 14.2798 11.5774 15.7117 11.5791Z" fill="black"/>
<path d="M3.08172 13.2702C2.7332 13.2702 2.38385 13.276 2.03533 13.2686C1.60625 13.2603 1.41309 13.0499 1.44597 12.6299C1.58324 10.8988 2.01149 9.24577 2.77676 7.68317C2.9691 7.29108 3.22474 7.20313 3.5971 7.41438C4.22099 7.76784 4.84241 8.1254 5.46054 8.48872C5.78276 8.67777 5.85263 8.89231 5.69563 9.23919C5.18929 10.3579 4.86789 11.5243 4.7561 12.7482C4.72404 13.0959 4.54321 13.2579 4.18893 13.2677C3.81986 13.2776 3.44997 13.2702 3.08089 13.2702H3.08172ZM2.47591 12.2863C2.67319 12.2863 2.83512 12.2904 2.99705 12.2855C3.26091 12.2772 3.58477 12.3496 3.7689 12.223C3.91274 12.1244 3.88315 11.7742 3.93083 11.5358C3.93247 11.526 3.93576 11.5161 3.93905 11.5062C4.15523 10.7221 4.37141 9.93788 4.59581 9.12576C4.25469 8.93012 3.87904 8.71476 3.48778 8.49036C2.94856 9.71348 2.60661 10.953 2.47674 12.2871L2.47591 12.2863Z" fill="black"/>
<path d="M3.1162 13.9748C3.46555 13.9748 3.81489 13.969 4.16341 13.9764C4.53495 13.9838 4.71743 14.1384 4.74867 14.5107C4.85224 15.7379 5.17199 16.9052 5.68573 18.0231C5.84191 18.3625 5.76546 18.5771 5.43667 18.7694C4.82593 19.127 4.21355 19.4813 3.59789 19.8298C3.22224 20.0427 2.96496 19.9564 2.77508 19.5668C2.01146 18.0017 1.58238 16.3462 1.44593 14.6135C1.41305 14.1934 1.60868 13.983 2.03694 13.9756C2.39614 13.9699 2.75617 13.9748 3.11538 13.9748H3.1162ZM3.48774 18.7596C3.89298 18.5245 4.26205 18.3108 4.56701 18.134C4.27685 17.0482 4.00148 16.0158 3.72283 14.9751H2.4767C2.61068 16.2961 2.94605 17.5389 3.48774 18.7596Z" fill="black"/>
<path d="M14.7365 1.66143C14.7365 2.00995 14.7422 2.35848 14.7348 2.70618C14.7275 3.08429 14.5828 3.2643 14.208 3.29636C12.9684 3.40075 11.7889 3.71804 10.6603 4.23589C10.3463 4.37974 10.1243 4.31069 9.95172 4.01889C9.57525 3.38514 9.20535 2.74728 8.8445 2.10448C8.6686 1.79213 8.75491 1.51676 9.07466 1.36059C10.6775 0.578056 12.3708 0.126786 14.1504 0.00266661C14.5178 -0.0228149 14.7233 0.176106 14.734 0.555041C14.7447 0.92329 14.7365 1.29236 14.7365 1.66143ZM13.7337 1.03344C12.407 1.16249 11.1625 1.50443 9.94761 2.04283C10.1194 2.34368 10.2953 2.61987 10.4392 2.91085C10.546 3.12786 10.6529 3.15991 10.8904 3.07854C11.5192 2.86318 12.1612 2.68398 12.8032 2.51054C13.1065 2.42835 13.423 2.393 13.7337 2.33628V1.03344Z" fill="black"/>
<path d="M9.45142 4.7241C9.35936 4.84493 9.28291 5.01097 9.15468 5.10304C8.142 5.82474 7.28467 6.69358 6.57036 7.70955C6.36158 8.00711 6.14375 8.04821 5.82318 7.8682C5.19025 7.51063 4.55979 7.14649 3.93343 6.77742C3.59642 6.5785 3.54052 6.30478 3.76328 5.97599C4.74638 4.52683 5.96374 3.30947 7.41454 2.32555C7.75977 2.09128 8.03021 2.14553 8.23899 2.49899C8.60313 3.11548 8.9607 3.7369 9.31497 4.35914C9.36922 4.45367 9.39306 4.56628 9.45142 4.7241ZM7.61511 3.38755C6.5268 4.18817 5.61111 5.08824 4.84173 6.16751C5.24614 6.39931 5.61439 6.61056 5.92264 6.78728C6.71174 5.99407 7.46633 5.2362 8.23817 4.46024C8.05569 4.14542 7.84608 3.78457 7.61593 3.38755H7.61511Z" fill="black"/>
<path d="M2.78562 22.8249C2.78069 23.0756 2.56204 23.2885 2.30887 23.2877C2.04008 23.2877 1.82554 23.06 1.83951 22.7904C1.85266 22.5364 2.07789 22.3293 2.32777 22.3408C2.57848 22.3515 2.79055 22.5759 2.78562 22.8249Z" fill="black"/>
</g>
<defs>
<clipPath id="clip0_2803_3048">
<rect width="30" height="30.5162" fill="white"/>
</clipPath>
</defs>
</svg>
