<svg width="30" height="30" viewBox="0 0 30 30" fill="none" xmlns="http://www.w3.org/2000/svg">
<g clip-path="url(#clip0_2803_3027)">
<path d="M29.9999 28.4759C29.823 28.5338 29.6469 28.641 29.47 28.6418C26.8243 28.6528 24.1778 28.6496 21.532 28.6496C21.417 28.6496 21.3019 28.6496 21.1524 28.6496C21.1524 28.9612 21.154 29.2508 21.1524 29.5412C21.15 29.8973 21.0538 29.9991 20.7054 29.9991C16.8973 29.9999 13.09 29.9999 9.28186 29.9991C8.95154 29.9991 8.85213 29.8942 8.849 29.5576C8.84665 29.2664 8.849 28.976 8.849 28.6504C8.7128 28.6504 8.5993 28.6504 8.48501 28.6504C5.83929 28.6504 3.19278 28.6504 0.547061 28.6504C0.0727096 28.6504 0.00147854 28.58 0.000695785 28.1134C0.000695785 26.8438 -0.000869732 25.575 0.000695785 24.3053C0.0022613 23.0842 0.625337 22.1762 1.7619 21.734C2.0343 21.6283 2.30827 21.5265 2.58145 21.4216C2.86533 21.3126 2.9924 21.0978 2.96265 20.7774C2.81863 20.7508 2.66677 20.7281 2.51805 20.696C1.32904 20.4346 0.482875 19.4186 0.470351 18.2068C0.457827 17.0257 0.454696 15.8437 0.470351 14.6625C0.491485 13.0633 1.67971 11.5362 3.34229 10.964C4.48747 10.5695 5.60525 10.6227 6.67606 11.2262C6.75981 11.2732 6.85296 11.3084 6.94533 11.335C8.80438 11.8751 9.91903 13.3303 9.9386 15.2598C9.94799 16.1873 9.94721 17.1149 9.9386 18.0425C9.92529 19.5704 8.96015 20.6107 7.43534 20.7539C7.40716 20.7563 7.38054 20.768 7.35549 20.7751C7.24826 21.2259 7.26235 21.233 7.66938 21.3888C8.33942 21.6455 9.06582 21.7786 9.65602 22.2827C10.3902 21.5445 11.4031 21.3856 12.3151 21.0123C12.5013 20.9363 12.5867 20.8463 12.553 20.6506C12.5483 20.6224 12.553 20.5919 12.553 20.563C12.553 20.1919 12.6438 19.7888 12.5264 19.4593C12.4168 19.1532 12.081 18.9301 11.8532 18.6632C11.1166 17.799 10.7315 16.8002 10.7182 15.6621C10.7112 15.0766 10.7323 14.4895 10.7034 13.9048C10.5899 11.6058 12.7103 9.92292 14.7166 10.009C14.9201 10.0176 15.1377 10.0137 15.324 10.0826C16.412 10.4842 17.5838 10.7307 18.3955 11.6677C18.9521 12.3095 19.2839 13.0508 19.2824 13.904C19.2808 14.8958 19.3912 15.8969 19.1086 16.8738C18.8049 17.9251 18.2178 18.7751 17.3106 19.3927C17.1635 19.4929 17.1055 19.5955 17.1118 19.7716C17.1251 20.1418 17.1157 20.5121 17.1157 20.8753C18.1623 21.3708 19.3708 21.4529 20.2139 22.2067C20.8526 21.9296 21.4608 21.658 22.0753 21.4005C22.4753 21.233 22.4792 21.2416 22.4134 20.8745C21.9148 20.6624 21.4264 20.5293 21.0225 20.2671C20.2992 19.7974 19.9313 19.0804 19.9211 18.2123C19.907 17.0311 19.9039 15.8492 19.9195 14.668C19.943 12.9905 21.2166 11.4274 22.9786 10.9021C24.0658 10.5773 25.1179 10.6595 26.1182 11.2223C26.202 11.2693 26.2943 11.3053 26.3867 11.3327C28.2364 11.8743 29.3393 13.2841 29.3792 15.1956C29.3995 16.1615 29.3956 17.129 29.3792 18.0949C29.3549 19.5931 28.3851 20.6162 26.8869 20.7532C26.8587 20.7555 26.8313 20.7665 26.8063 20.7727C26.6857 21.2111 26.7022 21.2424 27.1131 21.3856C27.463 21.507 27.8129 21.6291 28.162 21.7527C29.1193 22.0925 29.7267 22.7468 29.9475 23.7472C29.9553 23.7824 29.9811 23.8137 29.9991 23.8474V28.4759H29.9999ZM20.4933 29.3432C20.5004 29.2899 20.509 29.2524 20.509 29.2156C20.509 27.5553 20.5356 25.8951 20.4972 24.2364C20.4753 23.2932 19.9618 22.6247 19.0859 22.2623C18.7258 22.1136 18.3517 22.0009 17.9822 21.8749C17.6441 21.7598 17.3044 21.6486 16.9521 21.5312C16.6022 22.1848 16.2922 22.8267 15.9251 23.4341C15.497 24.1433 15.1893 24.8689 15.3161 25.7182C15.3177 25.7276 15.3161 25.7378 15.3161 25.7472C15.3146 25.9695 15.241 26.1409 14.985 26.1331C14.7455 26.126 14.6813 25.9554 14.6805 25.7487C14.6798 25.3777 14.6907 25.0067 14.6774 24.6356C14.6727 24.5073 14.6359 24.3625 14.567 24.256C14.0129 23.4059 13.4438 22.566 12.8872 21.7175C12.7894 21.5688 12.7033 21.5328 12.5311 21.6017C12.052 21.7934 11.5636 21.9633 11.0791 22.1433C10.0255 22.5347 9.49164 23.2979 9.49086 24.418C9.48929 25.9609 9.49086 27.5037 9.49086 29.0465C9.49086 29.1412 9.49086 29.2359 9.49086 29.3408H11.7906C11.7906 29.221 11.7906 29.1162 11.7906 29.0113C11.7906 28.1714 11.7922 27.3315 11.7898 26.4923C11.7898 26.2591 11.8235 26.0493 12.1084 26.0227C12.3174 26.0031 12.4301 26.1698 12.4309 26.479C12.4325 27.3283 12.4309 28.1776 12.4309 29.0277C12.4309 29.131 12.4309 29.2343 12.4309 29.3338H17.5689C17.5689 28.3545 17.5713 27.3988 17.5674 26.443C17.5666 26.2215 17.6229 26.036 17.8695 26.0266C18.1341 26.0164 18.2092 26.209 18.2092 26.4407C18.2092 27.124 18.2092 27.8074 18.2092 28.4915C18.2092 28.7717 18.2092 29.0512 18.2092 29.3439H20.4925L20.4933 29.3432ZM26.6395 21.8913C26.1213 22.6811 25.6118 23.4529 25.1124 24.231C25.0654 24.3045 25.0685 24.418 25.0678 24.5128C25.0631 25.0004 25.0662 25.4888 25.0631 25.9765C25.0615 26.1863 24.977 26.3546 24.7484 26.3577C24.5034 26.3608 24.4212 26.1925 24.4228 25.9648C24.4267 25.4865 24.4298 25.0082 24.4212 24.53C24.4196 24.4196 24.3993 24.2889 24.3374 24.2036C23.8146 23.474 23.2815 22.7523 22.7453 22.0322C22.7015 21.9735 22.5903 21.8999 22.5449 21.9187C21.979 22.1512 21.4185 22.3954 20.8604 22.6467C20.7227 22.7085 20.7062 22.8095 20.79 22.9558C21.0616 23.4333 21.1594 23.9539 21.1547 24.5018C21.1461 25.5656 21.1524 26.6293 21.1524 27.6931C21.1524 27.7949 21.1524 27.8974 21.1524 27.9929H29.333C29.3432 27.9522 29.3549 27.9248 29.3549 27.8982C29.3549 26.6395 29.3792 25.3793 29.3447 24.1214C29.3236 23.3715 28.926 22.7993 28.2418 22.487C27.7307 22.2537 27.1867 22.0925 26.6395 21.8929V21.8913ZM8.84821 27.9937C8.84821 27.1733 8.8396 26.3741 8.85056 25.5757C8.86387 24.6294 8.70497 23.6564 9.27638 22.7915C8.63609 22.2874 7.87525 22.1895 7.19346 21.8897C6.95159 22.2584 6.73164 22.5911 6.51325 22.9253C6.21971 23.3746 5.81581 23.7903 5.6663 24.2834C5.51679 24.7765 5.62325 25.3464 5.61699 25.8826C5.61699 25.9021 5.61699 25.9217 5.61699 25.9413C5.61777 26.1738 5.54184 26.3648 5.27805 26.3554C5.03227 26.3468 4.97121 26.162 4.97434 25.9405C4.98061 25.4622 4.98374 24.9832 4.97199 24.5057C4.96886 24.3891 4.92738 24.2552 4.85928 24.1605C4.35362 23.4545 3.83308 22.7586 3.32742 22.0533C3.22096 21.9046 3.1239 21.8874 2.96187 21.9563C2.62998 22.0972 2.28792 22.2122 1.9529 22.3453C1.11221 22.6787 0.647254 23.3621 0.645689 24.2701C0.64334 25.4223 0.645689 26.5745 0.645689 27.726C0.645689 27.8105 0.645689 27.8958 0.645689 27.9937H8.85056H8.84821ZM15.8782 13.2903C15.8015 13.3851 15.7467 13.4641 15.6801 13.533C15.097 14.1373 14.3698 14.441 13.5589 14.261C12.4833 14.0214 11.0634 15.2872 11.4626 16.5983C11.9432 18.1755 13.2199 19.352 14.7213 19.4624C16.6601 19.6049 18.354 18.1513 18.6249 16.0785C18.6468 15.9087 18.5552 15.8648 18.437 15.8038C17.4977 15.32 16.7345 14.6383 16.1615 13.7483C16.0731 13.6113 15.9901 13.4712 15.8782 13.2903ZM20.5857 15.641C22.1974 15.414 23.5281 14.7173 24.5511 13.4633C24.9151 13.0172 25.0004 13.0281 25.4036 13.4539C26.4219 14.531 27.4559 15.5932 28.4845 16.6609C28.5479 16.7267 28.623 16.7814 28.7428 16.884C28.7428 16.2578 28.7624 15.695 28.7389 15.1337C28.6724 13.5236 27.7182 12.3487 26.1738 11.944C26.09 11.9221 26.0039 11.8923 25.9319 11.8469C25.0873 11.3154 24.1684 11.2364 23.2275 11.4626C21.5023 11.8767 20.3274 13.7459 20.5857 15.6417V15.641ZM1.13491 15.6245C1.15292 15.6292 1.17249 15.6394 1.18971 15.6363C2.78966 15.3967 4.12662 14.6868 5.14498 13.4125C5.44635 13.0359 5.57472 13.0461 5.90269 13.3929C6.93672 14.4833 7.98092 15.5643 9.02277 16.6476C9.09243 16.7196 9.17306 16.7814 9.27247 16.8691C9.27247 16.156 9.31474 15.4922 9.26308 14.8363C9.17697 13.7553 8.64548 12.8935 7.70774 12.3612C7.07135 12.0004 6.38409 11.6755 5.67804 11.5002C3.10746 10.8622 0.875037 12.7424 1.13491 15.6245ZM24.9676 13.9737C24.2905 14.7588 23.4913 15.3529 22.5582 15.7678C22.4839 15.8006 22.4111 15.9001 22.3892 15.9822C22.0737 17.1587 22.253 18.2335 23.1226 19.1258C23.9249 19.9485 25.1116 20.0369 26.0305 19.3802C26.9033 18.7571 27.4066 17.4233 27.1554 16.3877C27.1358 16.3063 27.0967 16.2194 27.0403 16.1599C26.3585 15.4359 25.672 14.7157 24.9668 13.9737H24.9676ZM5.5301 13.9651C4.84597 14.7533 4.04286 15.3568 3.09885 15.7733C3.02058 15.8077 2.95639 15.9298 2.93056 16.023C2.66442 16.9975 2.78105 17.9204 3.35951 18.7603C3.93014 19.5892 4.87024 19.9641 5.77824 19.7504C6.79974 19.5101 7.62868 18.4918 7.732 17.3356C7.7821 16.7775 7.82671 16.221 7.28191 15.8288C7.10266 15.6997 6.9649 15.5118 6.81226 15.3482C6.388 14.8926 5.9661 14.4355 5.5301 13.9659V13.9651ZM18.646 15.1909C18.646 14.722 18.6617 14.304 18.6429 13.8876C18.5834 12.5882 17.6981 11.5143 16.4347 11.1832C16.3134 11.1511 16.1905 11.1096 16.0825 11.0477C15.1862 10.5366 14.2563 10.5092 13.3264 10.9076C11.8861 11.5244 11.119 12.8348 11.3906 14.4488C11.4157 14.4324 11.4415 14.4214 11.4595 14.4026C12.0638 13.7757 12.791 13.5166 13.6583 13.641C14.1084 13.7052 14.5467 13.6269 14.9075 13.3451C15.158 13.1494 15.3702 12.9005 15.5799 12.6594C15.9322 12.254 16.1193 12.2767 16.3517 12.7698C16.8402 13.8077 17.5854 14.6038 18.646 15.1909ZM16.4598 19.8499C15.3396 20.2475 14.2688 20.1739 13.1933 19.7184C13.1933 20.0714 13.205 20.3743 13.1894 20.6749C13.1769 20.9207 13.2434 21.1226 13.3835 21.3254C13.8101 21.9422 14.2187 22.5715 14.6359 23.1954C14.758 23.3785 14.8833 23.5601 15.0265 23.7699C15.4038 23.0631 15.7208 22.3672 16.1318 21.7324C16.5138 21.1422 16.4918 20.5254 16.4598 19.8499ZM6.6698 20.0996C5.60603 20.6193 4.61349 20.5481 3.6233 19.9422C3.6233 20.3751 3.61078 20.7641 3.62956 21.1516C3.63661 21.2956 3.68749 21.4576 3.76968 21.5751C4.1908 22.1723 4.62836 22.757 5.06123 23.3457C5.12776 23.4357 5.19821 23.5226 5.28197 23.6306C5.73675 22.9371 6.17118 22.2788 6.59935 21.6173C6.63927 21.5563 6.66432 21.4741 6.6651 21.4005C6.67136 20.9825 6.66823 20.5645 6.66823 20.0988L6.6698 20.0996ZM23.0709 19.943C23.0709 20.379 23.0584 20.7665 23.0772 21.1516C23.0842 21.2964 23.1351 21.4584 23.2181 21.5758C23.6627 22.2044 24.1237 22.822 24.5809 23.4419C24.6239 23.4999 24.6772 23.5492 24.739 23.6173C25.1233 23.031 25.4646 22.4486 25.8677 21.9124C26.2983 21.341 26.0329 20.7289 26.1307 20.0925C25.0513 20.617 24.0666 20.5457 23.0709 19.9438V19.943ZM2.96578 20.0855C3.00336 19.6667 2.97674 19.3105 2.73644 18.9379C2.48987 18.5567 2.31531 18.0941 2.24017 17.6456C2.15641 17.1478 2.22138 16.6257 2.22138 16.0879C1.84409 16.1623 1.48715 16.2327 1.12239 16.3055C1.12239 17.0225 1.07621 17.727 1.13413 18.4221C1.21084 19.3489 2.0891 20.116 2.96735 20.0855H2.96578ZM20.5583 16.3063C20.5583 16.9458 20.5497 17.5681 20.5606 18.1904C20.5771 19.1047 21.1868 19.8538 22.076 20.0643C22.1825 20.0894 22.296 20.0878 22.4119 20.0988C22.4549 19.6636 22.4259 19.3074 22.1825 18.9356C21.9391 18.5638 21.7645 18.1106 21.6933 17.6714C21.6111 17.1634 21.6745 16.6327 21.6745 16.0871C21.3011 16.1607 20.9504 16.2296 20.5591 16.3071L20.5583 16.3063ZM8.44588 16.9881C8.41144 17.0343 8.40204 17.0405 8.40126 17.0484C8.395 17.1063 8.38873 17.1642 8.38482 17.2229C8.33003 18.037 8.0545 18.7681 7.51126 19.3763C7.30931 19.6025 7.27644 19.8217 7.33671 20.087C8.47797 20.1724 9.56757 18.9098 9.29517 17.8319C9.28421 17.7873 9.25838 17.7395 9.2255 17.7082C8.97111 17.4687 8.7128 17.2339 8.44588 16.9881ZM26.7796 20.0839C27.6939 20.1622 28.6003 19.3935 28.7123 18.444C28.7389 18.2162 28.8007 17.9219 28.6919 17.7638C28.4861 17.464 28.169 17.2401 27.852 16.9411C27.8168 17.8937 27.5608 18.6914 26.98 19.3512C26.7843 19.5735 26.7186 19.7904 26.7804 20.0831L26.7796 20.0839Z" fill="black"/>
<path d="M16.2303 0C16.3062 0.130721 16.3994 0.254397 16.4542 0.393728C16.5136 0.546365 16.5379 0.713876 16.577 0.874341C16.7673 1.65867 16.7657 1.66258 17.5211 1.92715C17.5954 1.95298 17.7097 1.92872 17.7825 1.88723C18.1136 1.69937 18.4377 1.50055 18.7609 1.30016C18.9637 1.17492 19.139 1.18431 19.312 1.35965C19.7856 1.8387 20.2638 2.31383 20.7444 2.78584C20.9104 2.94943 20.9261 3.11616 20.8047 3.31029C20.6083 3.62495 20.4227 3.94589 20.2208 4.25664C20.1323 4.39362 20.1558 4.50321 20.1918 4.65585C20.3233 5.221 20.6951 5.41121 21.229 5.5161C22.227 5.71179 22.0838 5.63116 22.0916 6.57752C22.0955 7.06596 22.0845 7.5544 22.0955 8.04206C22.101 8.30037 21.9953 8.44127 21.744 8.49606C21.3824 8.57512 21.02 8.65653 20.6662 8.76455C20.5589 8.79742 20.4611 8.90857 20.3914 9.0072C20.058 9.47607 20.1809 9.88311 20.4924 10.3402C21.0576 11.1707 21.0302 11.0322 20.339 11.7234C20.2427 11.8197 20.1472 11.9183 20.0462 12.0106C19.8967 12.1484 19.73 12.1829 19.5813 12.024C19.4396 11.8729 19.4506 11.6999 19.5985 11.5551C19.7856 11.3711 19.9844 11.1981 20.1738 11.0244C19.9335 10.6291 19.7261 10.2761 19.5061 9.93007C19.4005 9.76335 19.3997 9.61697 19.4866 9.4385C19.6275 9.15045 19.7511 8.85222 19.8592 8.55007C19.9288 8.35595 20.0345 8.24088 20.2404 8.19626C20.6396 8.10938 21.0349 8.00527 21.4388 7.90664V6.21823C21.0646 6.1243 20.6834 6.01628 20.2967 5.93722C20.058 5.88869 19.9265 5.77363 19.8529 5.53802C19.766 5.26014 19.6502 4.98852 19.5155 4.73021C19.402 4.5126 19.4114 4.3357 19.546 4.13296C19.7613 3.8089 19.9539 3.46919 20.1449 3.15608C19.7449 2.74905 19.3566 2.35375 18.9472 1.93811C18.6122 2.14006 18.26 2.34436 17.9171 2.56275C17.7316 2.68095 17.568 2.6786 17.3708 2.58075C17.0921 2.44299 16.8009 2.32871 16.5074 2.2246C16.3148 2.1565 16.1982 2.05396 16.1528 1.84496C16.0675 1.44732 15.9579 1.05438 15.8538 0.641079C15.3246 0.641079 14.8088 0.634817 14.293 0.648907C14.2319 0.650472 14.1403 0.749883 14.12 0.820331C14.0198 1.16631 13.9595 1.5256 13.8429 1.86531C13.7967 1.99917 13.6605 2.13458 13.5298 2.20112C13.2456 2.34749 12.9333 2.43829 12.6429 2.57449C12.4472 2.66686 12.2813 2.67234 12.095 2.55258C11.7592 2.33653 11.4116 2.1385 11.086 1.94281C10.6837 2.35297 10.2899 2.75296 9.88055 3.17017C10.0668 3.47701 10.2751 3.82847 10.4934 4.17367C10.5991 4.33961 10.6007 4.48677 10.5146 4.66524C10.3713 4.96269 10.2758 5.2844 10.1209 5.57481C10.0481 5.71101 9.9009 5.84877 9.75687 5.89808C9.42655 6.01158 9.07587 6.06481 8.7385 6.15953C8.66571 6.17988 8.56003 6.2699 8.55847 6.33017C8.54438 6.84601 8.54986 7.36184 8.54986 7.88316C8.96863 7.98883 9.37097 8.06867 9.75687 8.19705C9.89933 8.24401 10.0457 8.38256 10.1177 8.51798C10.2719 8.80916 10.3987 9.11914 10.4958 9.4338C10.5412 9.58096 10.5396 9.7837 10.4723 9.91677C10.2868 10.28 10.0551 10.6205 9.81245 11.0173C9.97839 11.1653 10.1514 11.3085 10.3118 11.4643C10.4668 11.6146 10.4989 11.7938 10.333 11.9519C10.1788 12.0983 10.0097 12.0607 9.86489 11.9198C9.65511 11.7155 9.45003 11.5065 9.24103 11.3015C9.0837 11.1465 9.07978 10.9829 9.19407 10.8005C9.39054 10.4866 9.57684 10.1657 9.77644 9.85336C9.86176 9.71951 9.84845 9.61149 9.81245 9.45494C9.68094 8.88979 9.31148 8.70193 8.77842 8.58999C7.79919 8.38334 7.91191 8.5305 7.90878 7.50587C7.90721 7.01743 7.91426 6.52899 7.90643 6.04133C7.90252 5.79398 8.00819 5.66639 8.24928 5.61473C8.61091 5.53723 8.97255 5.45191 9.32635 5.34311C9.43516 5.30945 9.53692 5.20378 9.60658 5.10593C9.94786 4.6261 9.81323 4.21046 9.49778 3.74785C8.94202 2.93221 8.97724 3.07076 9.65746 2.38976C10.0019 2.04378 10.3525 1.70407 10.6938 1.35495C10.8637 1.18118 11.0336 1.15379 11.241 1.28372C11.5549 1.48098 11.8805 1.65945 12.1905 1.8614C12.3298 1.9522 12.4386 1.92324 12.5905 1.88801C13.1525 1.75729 13.381 1.40114 13.4554 0.853989C13.4945 0.562021 13.6605 0.284924 13.7693 0C14.5896 0 15.41 0 16.2303 0Z" fill="black"/>
<path d="M15.0047 9.74084C13.5213 9.74319 12.3135 8.55027 12.3057 7.07399C12.2971 5.5844 13.5041 4.36799 14.9953 4.36329C16.4825 4.3586 17.6989 5.57657 17.695 7.06459C17.6903 8.54401 16.4896 9.7385 15.0054 9.74163L15.0047 9.74084ZM15.0078 9.10055C16.1412 9.09507 17.0524 8.18316 17.0516 7.05285C17.0516 5.92646 16.1334 5.00594 15.0062 5.00046C13.8712 4.99498 12.9437 5.92725 12.9484 7.06929C12.9531 8.19568 13.8759 9.10603 15.0078 9.10055Z" fill="black"/>
<path d="M14.9892 27.5306C14.7692 27.5244 14.5876 27.3342 14.5884 27.1119C14.5899 26.8723 14.7809 26.6946 15.0244 26.7072C15.2529 26.7189 15.4205 26.9036 15.4103 27.1322C15.4009 27.3537 15.2075 27.5361 14.9892 27.5298V27.5306Z" fill="black"/>
</g>
<defs>
<clipPath id="clip0_2803_3027">
<rect width="30" height="29.9992" fill="white"/>
</clipPath>
</defs>
</svg>
