<?xml version="1.0" encoding="UTF-8"?>
<svg version="1.1" xmlns="http://www.w3.org/2000/svg" width="30" height="30">
<path d="M0 0 C2.875 -0.1875 2.875 -0.1875 6 0 C6.66 0.99 7.32 1.98 8 3 C8.61875 2.79375 9.2375 2.5875 9.875 2.375 C10.926875 2.189375 10.926875 2.189375 12 2 C12.66 2.66 13.32 3.32 14 4 C13.625 7.125 13.625 7.125 13 10 C14.32 10.33 15.64 10.66 17 11 C17.36923077 15.55384615 17.36923077 15.55384615 15.5 17.8125 C15.005 18.204375 14.51 18.59625 14 19 C15.32 19.66 16.64 20.32 18 21 C18.09765625 27.15234375 18.09765625 27.15234375 18 29 C16.16965945 30.83034055 13.26788008 30.13042797 10.8125 30.1328125 C9.55695312 30.13410156 8.30140625 30.13539062 7.0078125 30.13671875 C6.35071289 30.13462402 5.69361328 30.1325293 5.01660156 30.13037109 C3.00838665 30.12502234 1.00039541 30.13031691 -1.0078125 30.13671875 C-2.26335938 30.13542969 -3.51890625 30.13414063 -4.8125 30.1328125 C-5.97394531 30.13168457 -7.13539063 30.13055664 -8.33203125 30.12939453 C-11 30 -11 30 -12 29 C-12.14115161 26.32941149 -12.04247107 23.67567762 -12 21 C-10.68 20.34 -9.36 19.68 -8 19 C-8.495 18.608125 -8.99 18.21625 -9.5 17.8125 C-11.45593143 15.44908285 -11.24207973 13.98564997 -11 11 C-9.68 10.67 -8.36 10.34 -7 10 C-7.20625 9.05125 -7.4125 8.1025 -7.625 7.125 C-7.74875 6.09375 -7.8725 5.0625 -8 4 C-7.34 3.34 -6.68 2.68 -6 2 C-2.875 2.375 -2.875 2.375 0 3 C0 2.01 0 1.02 0 0 Z M2 1 C1.67 2.32 1.34 3.64 1 5 C-1.97 4.505 -1.97 4.505 -5 4 C-5.97608217 6.92824652 -6.08226668 8.95613276 -6 12 C-6.99 12 -7.98 12 -9 12 C-8.67 12.99 -8.34 13.98 -8 15 C-6.01735205 14.34410262 -6.01735205 14.34410262 -4 13 C-3.27840576 11.35636866 -2.60648579 9.68949614 -2 8 C0.7459726 6.6270137 2.9589047 6.87587366 6 7 C6.99 7.33 7.98 7.66 9 8 C9.061875 8.78375 9.12375 9.5675 9.1875 10.375 C9.455625 11.24125 9.72375 12.1075 10 13 C12.47636012 14.37466625 12.47636012 14.37466625 15 15 C15 14.01 15 13.02 15 12 C14.01 11.67 13.02 11.34 12 11 C12 9.02 12 7.04 12 5 C11.01 5 10.02 5 9 5 C7.68 5 6.36 5 5 5 C4.67 3.68 4.34 2.36 4 1 C3.34 1 2.68 1 2 1 Z M-2 10 C-3.01557588 13.3006216 -3.1092904 14.67212881 -2 18 C-1.01 17.67 -0.02 17.34 1 17 C1 15.35 1 13.7 1 12 C2.32 12 3.64 12 5 12 C5 13.98 5 15.96 5 18 C5.99 18 6.98 18 8 18 C8.74714785 15.31026772 9.1205535 13.48221402 8.4375 10.75 C7.03749275 8.7130128 7.03749275 8.7130128 4.0625 8.125 C0.82462068 7.69212888 0.82462068 7.69212888 -2 10 Z M2 13 C2 13.99 2 14.98 2 16 C2.99 15.67 3.98 15.34 5 15 C4.67 14.34 4.34 13.68 4 13 C3.34 13 2.68 13 2 13 Z M-7 15 C-7 15.99 -7 16.98 -7 18 C-6.01 18 -5.02 18 -4 18 C-4 17.01 -4 16.02 -4 15 C-4.99 15 -5.98 15 -7 15 Z M10 15 C10 15.99 10 16.98 10 18 C10.99 18 11.98 18 13 18 C13 17.01 13 16.02 13 15 C12.01 15 11.02 15 10 15 Z M-2 21 C-2.25015873 24.58357241 -2.25015873 24.58357241 -2 28 C-1.67 28 -1.34 28 -1 28 C-1 26.02 -1 24.04 -1 22 C-0.34 22 0.32 22 1 22 C1 24.31 1 26.62 1 29 C2.32 29 3.64 29 5 29 C5 26.69 5 24.38 5 22 C5.66 22 6.32 22 7 22 C7 23.98 7 25.96 7 28 C7.33 28 7.66 28 8 28 C8.25015873 24.58357241 8.25015873 24.58357241 8 21 C3.90086392 18.26724261 2.09913608 18.26724261 -2 21 Z M-9.8125 22.25 C-11.25664029 23.95581172 -11.25664029 23.95581172 -10.6875 26.1875 C-10.460625 26.785625 -10.23375 27.38375 -10 28 C-7.03 28.495 -7.03 28.495 -4 29 C-4 26.36 -4 23.72 -4 21 C-7.81814804 20.62151136 -7.81814804 20.62151136 -9.8125 22.25 Z M10 21 C10 23.64 10 26.28 10 29 C11.98 28.67 13.96 28.34 16 28 C16.77242269 26.16299211 16.77242269 26.16299211 17 24 C15.89661743 22.14646548 15.89661743 22.14646548 14 21 C12.68 21 11.36 21 10 21 Z " fill="#000" transform="translate(12,0)"/>
</svg>
