<svg width="30" height="30" viewBox="0 0 30 30" fill="none" xmlns="http://www.w3.org/2000/svg">
<g clip-path="url(#clip0_2803_2971)">
<path d="M26.9803 28.9062C27.9762 28.7863 28.8774 27.8685 28.9565 26.7818C29.024 25.852 29.0387 24.9014 28.9247 23.9791C28.7186 22.3073 27.3653 21.077 25.689 21.009C24.2551 20.951 22.8167 20.9969 21.3803 20.9979C21.35 20.9979 21.3198 21.0105 21.2659 21.0226C21.2774 21.0896 21.2906 21.1556 21.2996 21.2216C21.3641 21.6934 21.476 22.1651 21.4831 22.6379C21.5063 24.2089 21.4937 25.7809 21.4917 27.3524C21.4896 28.9214 20.4373 29.9762 18.8693 29.9828C18.4238 29.9848 17.9782 29.9828 17.5135 29.9828V22.015H18.4898V28.9496C19.7427 29.128 20.4922 28.4935 20.4927 27.2894C20.4927 25.7285 20.4947 24.1671 20.4927 22.6062C20.4897 20.5231 18.9706 18.9985 16.8896 18.9919C15.6301 18.9879 14.3705 18.9869 13.111 18.9919C11.0189 19.001 9.50637 20.511 9.50032 22.5966C9.49578 24.1368 9.53913 25.6786 9.48571 27.2173C9.44942 28.25 10.1258 29.1683 11.4957 28.9561V22.0049H12.476V29.9556C11.845 29.9556 11.215 30.0226 10.6046 29.9415C9.37684 29.7777 8.50944 28.7324 8.50239 27.487C8.49281 25.8217 8.48676 24.1565 8.50894 22.4912C8.51549 22.0094 8.62436 21.5286 8.69139 21.011C8.60974 21.0054 8.4913 20.9908 8.37286 20.9903C7.10276 20.9888 5.83317 20.9833 4.56307 20.9903C2.53747 21.0019 1.00529 22.5336 1.0073 24.5536C1.00781 25.3742 0.977565 26.2032 1.08139 27.0132C1.20386 27.9708 2.05513 28.7565 2.99258 28.9088V23.5083H3.98749V28.9798H8.48374V29.9667C8.38092 29.9722 8.28113 29.9823 8.18083 29.9823C6.65067 29.9833 5.1205 29.9858 3.59034 29.9823C1.52542 29.9778 0.00533579 28.4587 0.00735181 26.3907C0.00835983 25.5485 -0.0339767 24.6978 0.0683367 23.8667C0.336972 21.6879 2.17055 20.0458 4.37155 20.0035C5.93094 19.9737 7.49236 20.0277 9.05276 20.0347C9.1455 20.0347 9.27251 19.9747 9.32694 19.9011C10.2946 18.5842 11.6025 17.9768 13.2239 17.9905C14.4209 18.0005 15.618 17.9945 16.815 17.992C18.4112 17.9879 19.6979 18.6008 20.66 19.888C20.7261 19.9762 20.8969 20.0261 21.0194 20.0266C22.6937 20.0367 24.3741 19.944 26.0408 20.0584C28.1702 20.2046 29.8869 22.0845 29.9716 24.225C30.0094 25.1791 30.0255 26.1463 29.9111 27.0908C29.7165 28.6951 28.2443 29.9556 26.6315 29.9757C24.9355 29.9969 23.2385 29.9803 21.5174 29.9803V28.9884H25.9854V23.5098H26.9803V28.9057V28.9062Z" fill="black"/>
<path d="M26.9898 16.4774C26.9898 16.3846 26.9898 16.3131 26.9898 16.2415C26.9898 16.0026 26.9898 15.7642 26.9898 15.5329C27.4207 15.362 27.4887 15.2612 27.4892 14.8061C27.4897 13.911 27.4912 13.0159 27.4887 12.1207C27.4872 11.6777 27.3083 11.4993 26.8597 11.4973C26.0997 11.4938 25.3396 11.4897 24.5801 11.5008C24.3719 11.5038 24.2727 11.46 24.2182 11.2337C23.9748 10.2151 23.5585 9.26604 22.9431 8.31045C23.2505 8.02669 23.5665 7.74495 23.8715 7.45112C24.2011 7.13309 24.5247 6.80851 24.8427 6.47889C25.1048 6.20723 25.1073 5.95472 24.8432 5.68709C24.1708 5.00517 23.4945 4.32728 22.813 3.65443C22.5545 3.3994 22.2818 3.40394 22.0182 3.6625C21.4689 4.20229 20.9271 4.75014 20.3817 5.29397C20.3086 5.36654 20.2325 5.4361 20.2043 5.46281C19.4176 5.12008 18.6681 4.79298 17.9176 4.4679C17.8415 4.43514 17.7604 4.41347 17.6813 4.38978C17.225 4.25302 16.9968 3.95146 16.9968 3.48509C16.9968 2.8712 16.9983 2.25682 16.9963 1.64294C16.9948 1.19135 16.8209 1.00739 16.3814 1.00537C15.4551 1.00134 14.5282 1.00084 13.6018 1.00537C13.1795 1.00739 13.0015 1.19437 12.9995 1.62328C12.9965 2.39341 12.993 3.16403 13.0026 3.93416C13.0051 4.12921 12.9643 4.22446 12.7521 4.27436C11.7224 4.51628 10.7663 4.94267 9.83185 5.53337C9.48005 5.173 9.1343 4.81566 8.78503 4.46185C8.51437 4.18767 8.24523 3.91198 7.96601 3.64687C7.72308 3.41654 7.44235 3.40243 7.21605 3.62469C6.51044 4.3172 5.81038 5.01626 5.11787 5.72187C4.87796 5.96631 4.89964 6.22285 5.16222 6.48897C5.70353 7.03733 6.25088 7.57863 6.79521 8.12396C6.86728 8.19654 6.93582 8.27265 7.01848 8.35984C6.4298 9.28772 6.00492 10.2751 5.73982 11.3325C5.72167 11.405 5.56241 11.4872 5.46765 11.4892C4.70811 11.5018 3.94807 11.4953 3.18803 11.4968C2.66336 11.4978 2.5056 11.6591 2.5051 12.1923C2.5046 13.0562 2.5051 13.92 2.5051 14.7839C2.5051 15.2632 2.56356 15.3524 2.99147 15.5344V16.4618C2.24503 16.5258 1.53136 15.8796 1.51422 15.0858C1.49104 14.0249 1.49003 12.9619 1.51523 11.901C1.53438 11.1142 2.20522 10.5145 3.02927 10.4999C3.59123 10.4903 4.15371 10.5039 4.71567 10.4913C4.8069 10.4893 4.94601 10.4273 4.97776 10.3552C5.11182 10.0518 5.20305 9.72973 5.33056 9.42329C5.45808 9.11787 5.61029 8.82302 5.7625 8.50096C5.34316 8.08314 4.92232 7.66683 4.505 7.2475C3.76814 6.50661 3.76613 5.65433 4.50046 4.91697C5.13198 4.28242 5.76502 3.64939 6.39956 3.01837C7.13138 2.29059 8.01238 2.28605 8.74168 3.00678C9.11162 3.37269 9.48459 3.73608 9.84243 4.11358C9.96692 4.24513 10.0622 4.24412 10.2184 4.17457C10.7391 3.94121 11.2652 3.71794 11.798 3.51281C11.9537 3.45283 12.0051 3.38479 12.0026 3.22502C11.9945 2.66305 11.995 2.10108 12.0006 1.53911C12.0097 0.663655 12.6392 0.020038 13.5182 0.00945391C14.507 -0.00264226 15.4964 -0.00365027 16.4847 0.00945391C17.3602 0.0215501 17.9857 0.668191 17.9942 1.54718C17.9998 2.08848 18.0033 2.62979 17.9912 3.17058C17.9872 3.36362 18.0371 3.45535 18.2336 3.52793C18.7588 3.72197 19.2749 3.94424 19.7845 4.17709C19.9483 4.25168 20.0385 4.23404 20.1584 4.10854C20.5259 3.7255 20.9044 3.35304 21.2824 2.98007C21.9623 2.30974 22.8574 2.29563 23.5343 2.95739C24.2187 3.62722 24.8961 4.3046 25.5654 4.98904C26.203 5.64022 26.2045 6.51064 25.5705 7.16282C25.136 7.61038 24.6834 8.0408 24.2585 8.45963C24.5181 9.11686 24.7585 9.74435 25.0196 10.3628C25.0493 10.4328 25.194 10.4893 25.2872 10.4913C25.8179 10.5034 26.3492 10.4948 26.8799 10.4978C27.8577 10.5034 28.4862 11.1258 28.4892 12.096C28.4922 13.0642 28.4972 14.0319 28.4872 15.0001C28.4786 15.8363 27.836 16.4789 26.9908 16.4774H26.9898Z" fill="black"/>
<path d="M22.0061 13.4879H21.0091C20.9275 11.426 20.0893 9.75422 18.3908 8.56225C17.2533 7.7639 15.9716 7.42773 14.584 7.51895C11.6613 7.71048 9.07777 10.0808 8.98755 13.4703H7.99365C8.07329 11.0808 9.0188 9.12674 10.9975 7.78053C13.4188 6.13344 15.9938 6.02054 18.5324 7.48519C20.7969 8.79207 21.8861 10.8565 22.0061 13.4874V13.4879Z" fill="black"/>
<path d="M14.9772 17.4903C13.3246 17.4827 11.991 16.134 11.9996 14.4793C12.0081 12.8353 13.3745 11.485 15.0155 11.4981C16.6641 11.5112 18.0033 12.8685 17.9942 14.5166C17.9851 16.1673 16.6349 17.4978 14.9772 17.4903ZM14.9808 16.4913C16.0936 16.4969 16.9912 15.6123 16.9948 14.5061C16.9983 13.4043 16.0951 12.4971 14.9964 12.4971C13.9102 12.4971 13.0086 13.3902 12.9985 14.4753C12.9884 15.5846 13.8745 16.4858 14.9808 16.4913Z" fill="black"/>
<path d="M6.50424 19.4902C4.84858 19.4917 3.5054 18.1536 3.5044 16.5009C3.50339 14.8538 4.85312 13.5001 6.4987 13.498C8.14428 13.496 9.49804 14.8478 9.49905 16.4944C9.50006 18.147 8.1594 19.4882 6.50424 19.4902ZM6.48156 18.4912C7.59542 18.4988 8.49457 17.6163 8.50011 16.511C8.50565 15.4087 7.606 14.5005 6.50626 14.4975C5.42063 14.4945 4.51543 15.3866 4.50384 16.4707C4.49174 17.5805 5.37628 18.4842 6.48156 18.4917V18.4912Z" fill="black"/>
<path d="M23.495 19.4897C21.8393 19.4917 20.4957 18.1536 20.4941 16.5014C20.4926 14.8543 21.8424 13.5006 23.4879 13.4981C25.133 13.4955 26.4873 14.8473 26.4888 16.4939C26.4903 18.1465 25.1497 19.4882 23.4945 19.4902L23.495 19.4897ZM23.4869 18.4907C24.5978 18.4923 25.4914 17.6017 25.4899 16.4949C25.4883 15.3946 24.5781 14.4894 23.4804 14.497C22.3927 14.5046 21.4986 15.3992 21.4936 16.4858C21.488 17.5941 22.3781 18.4892 23.4869 18.4912V18.4907Z" fill="black"/>
<path d="M13.0215 28.998H16.9759V29.9577H13.0215V28.998Z" fill="black"/>
</g>
<defs>
<clipPath id="clip0_2803_2971">
<rect width="30" height="29.9869" fill="white"/>
</clipPath>
</defs>
</svg>
